<?xml version="1.0" encoding="UTF-8"?>
<svg id="tvw-logo-full" data-name="logo" xmlns="http://www.w3.org/2000/svg" viewBox="0 0 901.09 213.51">
	<path d="M414.58,25.22l-10.79-17.04h21.57l4.45,14.39c-2.19.27-4.46.58-6.82.93-2.89.43-5.71,1.02-8.41,1.72Z"/>
	<path d="M432.56,146.25l-6.45,20.93h-20.86l14.55-23.01c2.72.57,5.46,1.06,8.21,1.47,1.51.23,3.03.43,4.55.61Z"/>
	<path d="M433.51,22.11l-4.3-13.93h20.68v13.14c-5.14-.09-10.5.19-16.38.79Z"/>
	<path d="M449.89,147.34v19.84s-20,0-20,0l6.32-20.5c4.55.43,9.12.65,13.68.66Z"/>
	<path d="M469.83,23.52c-5.45-1.11-10.63-1.79-15.94-2.07v-13.27s20.67,0,20.67,0l-4.73,15.34Z"/>
	<path d="M467.51,146.53l6.37,20.65h-19.99v-19.87c2.08-.04,4.17-.13,6.25-.26,2.63-.12,5.07-.3,7.37-.52Z"/>
	<path d="M484.46,143.7l14.86,23.48h-20.86l-6.52-21.11c4.45-.58,8.47-1.37,12.52-2.37Z"/>
	<path d="M474.07,24.37l4.98-16.19h21.59l-12.67,20.04c-2.84-.9-5.7-1.74-8.6-2.52-1.81-.49-3.57-.93-5.3-1.33Z"/>
	<path d="M491.87,29.82l13.49-21.34h23.69l-25.64,25.85c-3.76-1.65-7.61-3.15-11.54-4.51Z"/>
	<path d="M499.17,139.21l27.77,27.97h-22.89l-15.54-24.54c1.26-.34,2.54-.71,3.85-1.09,1.97-.58,4.27-1.37,6.81-2.34Z"/>
	<path d="M532.71,120.9l123.18,45.94h-47.17l-81.74-41.96c2.01-1.3,3.93-2.63,5.73-3.98Z"/>
	<path d="M530.66,50.72l82.2-42.24h48.72l-125.62,46.9c-1.71-1.63-3.48-3.18-5.3-4.66Z"/>
	<path d="M511.85,133.32l47.45,33.52h-26.73l-29.37-29.59c2.75-1.15,5.67-2.47,8.65-3.93Z"/>
	<path d="M507.28,36.1l27.39-27.62h27.63l-45.87,32.44c-2.97-1.73-6.02-3.33-9.15-4.82Z"/>
	<path d="M523,127.33l76.97,39.51h-33.74l-50.34-35.56c2.39-1.24,4.78-2.57,7.11-3.95Z"/>
	<path d="M520.16,43.18l49.06-34.7h34.91l-76.94,39.53c-2.27-1.71-4.62-3.32-7.03-4.83Z"/>
	<path d="M540.66,113.95l202.24,52.89h-75.57l-130.99-48.85c1.6-1.36,3.03-2.71,4.32-4.04Z"/>
	<path d="M539.11,58.47l133.9-49.99h77.95l-207.69,54.39c-1.31-1.4-2.68-2.88-4.16-4.4Z"/>
	<path d="M890.36,8.48v5.09l-339.54,56.7c-1.5-1.2-2.95-2.57-4.43-4.1l220.35-57.69h123.62Z"/>
	<path d="M546.73,106.54l343.63,57.3v3h-131.63l-215.06-56.24c1.15-1.39,2.17-2.75,3.06-4.06Z"/>
	<path d="M350.86,69.81L10.18,13.02v-4.54h127.22l216.75,56.69c-1.13,1.51-2.2,3.08-3.29,4.64Z"/>
	<path d="M356.89,61.75L153.22,8.48h78.08l129.92,48.46c-1.48,1.53-2.93,3.14-4.33,4.81Z"/>
	<path d="M364.98,119.2l-127.62,47.64h-75.47l198.59-52c.68.73,1.35,1.46,2.01,2.21l2.49,2.15Z"/>
	<path d="M357.37,111.53l-211.24,55.31H10.18v-2.23l343.38-57.34c1.22,1.47,2.5,2.87,3.81,4.26Z"/>
	<path d="M364.33,53.54L242.72,8.18h48.77l78.5,40.31c-1.89,1.57-3.79,3.25-5.66,5.05Z"/>
	<path d="M374.91,126.59l-79.02,40.59h-47.09l119.87-44.75c.09.06.19.13.28.2,1.95,1.38,3.93,2.7,5.96,3.96Z"/>
	<path d="M373.42,45.74l-73.17-37.56h34.93l45.71,32.3c-2.4,1.54-4.91,3.3-7.47,5.26Z"/>
	<path d="M386.66,133.04l-48.28,34.14h-33.74l74.33-38.18c2.52,1.44,5.09,2.78,7.69,4.04Z"/>
	<path d="M384.57,38.19l-42.46-30.01h27.64l24.52,24.7c-4.13,2.04-7.2,3.85-8.82,4.79-.29.17-.58.34-.88.52Z"/>
	<path d="M400.24,138.71l-28.24,28.47h-26.7l45.55-32.21c1.97.87,3.95,1.7,5.96,2.47,1.14.44,2.28.86,3.43,1.27Z"/>
	<path d="M398.1,31.07l-22.73-22.89h23.7l11.5,18.17c-4.62,1.41-8.83,3.08-12.47,4.72Z"/>
	<path d="M415.64,143.26l-15.12,23.92h-22.88l26.81-27.04c3.69,1.19,7.42,2.22,11.19,3.12Z"/>
	<path d="M487.94,88.07c0,20.97-16.99,37.96-37.96,37.96s-37.96-16.99-37.96-37.96,17-37.96,37.96-37.96,37.96,17,37.96,37.96Z"/>
	<path d="M564.06,75.16c-10.52-1.08-16.05-9.96-23.01-16.8-5.81-5.98-12.39-11.27-19.46-15.7-36.79-22.71-85.16-29.93-125.36-12.12-17.01,7.89-30.34,17.24-42.33,31.19-7.5,8.39-11.31,20.58-24.35,22.16.77,9.83,2.45,15.07,12.78,9.1,8.22,25.91,36.17,40.69,60.43,48.91,40.13,12.77,85.58,9.59,121.75-12.81,17.82-9.99,25.46-21.15,33.08-37.51,1.04-1.41,3.61-1.92,4.99-4.12,1.34-2.1,3.82-10.69,1.49-12.29ZM553.99,91.22c-4.11,10.46-11.14,19.62-19.68,26.87-45.59,39.48-140.7,36.46-180.01-10.67h0c-3.42-4.7-6.96-9.53-9.42-14.81-1.12-2.56,1.64-4.84,2.94-6.74h0c.15-.2.32-.41.45-.6,0,0,0,.01.01.01,3.63,7.35,6.99,14.95,12.6,21.04h0c29.22,31.51,77.33,37.47,117.9,30.81,14.46-2.83,28.55-7.9,41.27-15.38h.01c13.03-7.66,24.82-18.09,32.09-31.49l1.85.94h0ZM508.12,85.89c-.19-11.73-4.08-23.34-10.97-32.83h0c-1.61-2.21-3.33-4.29-5.22-6.26,14.13,4.06,27.6,10.6,39.1,19.82h.01c10.01,8.16,18.74,13.16,14.08,27.82-12.19,20.44-35.63,30.95-57.73,37.1,13.29-11.12,21.19-28.29,20.73-45.64ZM491.98,51.46c20.05,23.22,15.72,61.75-9.08,79.86-6.97,4.59-20.54,3.83-29,4.53-7.23.13-14.51-.23-21.68-1-4.66-.9-10.08-.34-14.16-2.78-23.16-16.25-29.83-50.47-14.6-74.28,0-.01.01-.01.01-.02,3.13-5.08,7.07-9.64,11.63-13.48,9.93-2.31,20.08-3.67,30.27-3.96,10.31-.3,20.67.58,30.79,2.56,7.34,1.2,11.28,2.24,15.8,8.58ZM407.35,47.55c-.37.39-.72.79-1.08,1.18,0,.01,0,.02-.01.02-17.85,19.7-19.21,51.49-3.14,72.66h.01c2.65,3.61,5.72,6.93,9.14,9.83t.01,0c.22.21.44.37.65.57-24.97-4.86-75.51-32.21-50.53-62.11h.01c13.33-11.51,29.81-19.44,46.76-24.04-.61.62-1.23,1.24-1.81,1.89ZM562.24,78.67c-1.92,19.89-10.43,3.78-18.7-5.79-5.81-5.82-12.3-10.95-19.27-15.31-47.19-28.99-112.89-28.08-157.85,4.95-6.57,5-12.76,10.65-17.88,17.16-3.62,4.61-13.76,22.99-16.12,7.05,11.21-2.8,15.1-12.7,21.43-20.75,6.48-7.97,14.03-15.06,22.38-21.02,42.03-30.35,101.5-26.52,143.94,1.05,8.26,5.38,16.15,11.14,22.79,18.55,5.34,5.7,10.97,12.86,19.33,13.49-.02.21-.04.43-.06.63Z"/>
	<g>
		<path d="M81.66,143.95c-5.72.86-8.58,1.29-14.3,2.15,0-32.24,0-64.48,0-96.72-4.28-.45-6.42-.68-10.7-1.14v-19.13c11.9,1.85,23.8,3.7,35.7,5.55v17.37c-4.28-.45-6.42-.68-10.7-1.14v93.05Z"/>
		<path d="M100.66,136.08c-3.13-4.14-4.69-11.18-4.69-20.92V35.23c5.72.89,8.58,1.33,14.3,2.22,0,26.15,0,52.3,0,78.44,0,6.32,1.6,9.31,4.8,8.96,3.27-.35,4.91-3.6,4.91-9.73,0-25.39,0-50.78,0-76.17,5.72.89,8.58,1.33,14.3,2.22,0,23.68,0,47.35,0,71.03,0,8.76-1.57,15.35-4.69,19.96-3.13,4.61-7.97,7.52-14.52,8.53-6.48,1.01-11.28-.47-14.41-4.62Z"/>
		<path d="M154.7,132.99c-5.59.84-8.38,1.26-13.97,2.1,0-30.97,0-61.94,0-92.91,5.76.9,8.65,1.34,14.41,2.24,3.27,13.67,6.58,27.33,10.04,40.95.79,4.15,1.18,6.2,1.96,10.29.09,0,.13,0,.22,0-.22-4.78-.33-7.18-.55-11.97,0-12.48,0-24.96,0-37.45,5.59.87,8.38,1.3,13.97,2.17,0,26.89,0,53.78,0,80.67-5.81.87-8.71,1.31-14.52,2.18-3.43-12.9-6.73-25.83-9.93-38.79-.79-4.26-1.18-6.4-1.97-10.71-.09,0-.13,0-.22,0,.22,5.02.33,7.52.55,12.52,0,12.91,0,25.81,0,38.72Z"/>
		<path d="M201.97,125.9c-5.59.84-8.38,1.26-13.97,2.1,0-26.16,0-52.31,0-78.47,5.76.9,8.65,1.34,14.41,2.24,3.22,11.47,6.57,22.9,10.04,34.29.79,3.45,1.18,5.16,1.96,8.55.09,0,.13,0,.22,0-.22-3.97-.33-5.95-.55-9.94,0-10.36,0-20.72,0-31.08,5.59.87,8.38,1.3,13.97,2.17,0,22.08,0,44.16,0,66.23-5.81.87-8.71,1.31-14.52,2.18-3.4-10.71-6.7-21.43-9.93-32.19-.79-3.56-1.18-5.35-1.97-8.97-.09,0-.13,0-.22,0,.22,4.2.33,6.3.55,10.49,0,10.8,0,21.61,0,32.41Z"/>
		<path d="M266.49,116.22c-10.41,1.56-20.82,3.12-31.22,4.68,0-21.34,0-42.69,0-64.03,10.26,1.59,20.52,3.19,30.79,4.78v8.52c-6.59-.71-9.89-1.07-16.48-1.78v15.4c5.81.17,8.71.25,14.52.42v8.31c-5.81.1-8.71.15-14.52.25v16.6c6.77-.69,10.15-1.04,16.92-1.73v8.57Z"/>
		<path d="M301.31,110.99c-9.83,1.47-19.65,2.95-29.48,4.42v-52.86c5.72.89,8.58,1.33,14.3,2.22v40.67c6.07-.61,9.1-.92,15.17-1.53,0,2.83,0,4.24,0,7.07Z"/>
	</g>
	<g>
		<path d="M613.6,113.16c-4.38-15.24-9.17-30.36-14.38-45.33,6.59-.99,9.88-1.49,16.47-2.48,2.62,11.15,5.15,22.3,7.62,33.48.29,2.35.44,3.53.74,5.89.15.01.22.02.37.03.25-2.32.37-3.49.61-5.83,2.74-12.03,5.35-24.09,7.86-36.17,6.49-.98,9.73-1.47,16.22-2.44-4.5,18.75-9.22,37.42-14.25,56.04l-21.26-3.19Z"/>
		<path d="M669.88,121.61c-6.44-.97-9.66-1.45-16.1-2.42v-59.58c6.44-.97,9.66-1.45,16.1-2.42v64.42Z"/>
		<path d="M681.55,120.58c-3.69-3.16-5.53-7.22-5.53-12.38v-8.46c6.29.29,9.44.44,15.73.73v9.07c0,3.88,1.97,6.04,5.9,6.47,1.64.18,2.91-.09,3.81-.82.9-.73,1.35-1.81,1.35-3.2v-10.09c0-1.6-.35-2.9-1.05-3.88-.7-.98-1.74-1.84-3.13-2.56-1.39-.72-3.77-1.77-7.13-3.08-5.41-2.16-9.24-4.26-11.49-6.4-2.25-2.14-3.42-5.13-3.5-9.05v-8.21c0-4.22,1.9-7.75,5.71-10.75,3.81-3,8.87-5.09,15.18-6.07,6.8-1.06,12.02-.36,15.67,2.3,3.64,2.66,5.43,6.96,5.35,12.7v9.13c-6.09.31-9.14.47-15.24.78v-8.6c0-3.87-1.89-5.6-5.65-5.18-1.64.18-2.85.65-3.62,1.41-.78.76-1.17,1.7-1.17,2.85v8.62c0,1.79.61,3.13,1.84,4.05,1.23.92,3.28,1.88,6.14,2.92,6.72,2.26,11.45,4.93,14.19,7.84,2.74,2.91,4.12,6.96,4.12,11.99v10.96c0,5.18-1.97,9.06-5.9,11.43-3.93,2.37-9.09,2.96-15.48,1.96-7.05-1.09-12.41-3.32-16.1-6.47Z"/>
		<path d="M741.14,132.31c-6.44-.97-9.66-1.45-16.1-2.42,0-27,0-54,0-81.01,6.44-.97,9.66-1.45,16.1-2.42v85.85Z"/>
		<path d="M753.74,129.51c-3.64-4.66-5.47-10.86-5.47-18.83v-42.58c0-7.88,1.82-14.04,5.47-18.71,3.65-4.66,9.03-7.67,16.16-8.78,7.13-1.11,12.53.29,16.22,4.42,3.69,4.13,5.53,10.85,5.53,19.9v48.89c0,9.15-1.82,15.9-5.47,20.04-3.65,4.14-9.03,5.54-16.16,4.44-7.21-1.12-12.64-4.13-16.28-8.79ZM775.67,114.99v-51.22c0-5.95-1.89-8.72-5.65-8.31-3.85.42-5.78,3.49-5.78,9.23v49.39c0,5.82,1.92,8.94,5.78,9.35,3.77.41,5.65-2.41,5.65-8.44Z"/>
		<path d="M814.5,143.33c-6.29-.94-9.44-1.42-15.73-2.36V37.79c6.49-.98,9.73-1.46,16.22-2.44,3.88,16.53,7.62,33.1,11.31,49.68.88,5.38,1.33,8.09,2.21,13.54.1,0,.15,0,.25,0-.25-6.34-.37-9.5-.61-15.82v-49.38c6.29-.95,9.44-1.42,15.73-2.37v116.73c-6.54-.98-9.81-1.47-16.34-2.45-3.65-17.1-7.37-34.18-11.18-51.24-.88-5.26-1.33-7.87-2.21-13.07-.1,0-.15,0-.25,0,.25,6.07.37,9.12.61,15.21v47.14Z"/>
	</g>
	<rect x="0" y="210.53" width="901.09" height="2.98"/>
	<g>
		<path d="M14.89,192.07l2.11-3.9.25-.48.07-.3c0-.23-.2-.37-.59-.41-.39-.05-.63-.08-.71-.11-.08-.03-.18-.13-.29-.3-.17-.18-.25-.45-.25-.8,0-.86.47-1.29,1.42-1.29l1.33.12c.49.08.96.11,1.4.11.23,0,.52,0,.88-.02s.79-.05,1.27-.09h.69c1.09,0,1.63.47,1.63,1.41,0,.36-.11.67-.32.93-.21.26-.48.39-.78.39l-.83-.09h-.18c-.23,0-.43.07-.61.21-.18.14-.38.39-.61.76l-4.17,6.66c-.09.11-.15.23-.16.37v2.14c0,.96.31,1.45.94,1.45l.55-.05.5-.07c.31,0,.58.12.83.37.24.25.37.52.37.83,0,.44-.15.82-.44,1.12-.29.31-.66.46-1.11.46l-.83-.09c-.77-.09-1.63-.14-2.58-.14s-1.78.05-2.56.14l-.83.09c-.45,0-.82-.15-1.11-.46-.29-.31-.44-.68-.44-1.12,0-.31.12-.58.37-.83.25-.24.53-.37.85-.37l.51.07.55.05c.32,0,.55-.11.7-.33.15-.22.22-.59.22-1.11v-1.93c-.06-.29-.12-.48-.16-.57l-4.26-6.66c-.4-.64-.81-.96-1.22-.96h-.16l-.83.09c-.31,0-.57-.12-.79-.38-.22-.25-.33-.57-.33-.94,0-.94.55-1.41,1.65-1.41h.69c.4.05.78.08,1.15.09s.71.02,1.03.02c.46,0,.93-.04,1.4-.11l1.33-.12c.96,0,1.45.44,1.45,1.33,0,.17-.03.32-.09.45-.06.13-.12.23-.16.31-.12.17-.25.28-.37.33-.12.05-.38.08-.78.08-.29.05-.44.18-.44.41,0,.08.01.15.05.23.03.08.12.26.28.55l2.11,3.9.18.64.23-.64Z"/>
		<path d="M24.3,192.87c0-2.71.68-4.82,2.04-6.33,1.36-1.51,3.27-2.26,5.72-2.26s4.34.75,5.71,2.26c1.37,1.51,2.05,3.61,2.05,6.3,0,2.43-.6,4.48-1.79,6.13-.67.93-1.48,1.61-2.41,2.02s-2.12.62-3.56.62-2.63-.2-3.54-.6c-.9-.4-1.71-1.08-2.43-2.04-1.19-1.59-1.79-3.63-1.79-6.11ZM32.09,187.15c-1.32,0-2.33.49-3.03,1.46-.71.97-1.06,2.38-1.06,4.21,0,1.94.35,3.42,1.04,4.44.7,1.02,1.71,1.53,3.04,1.53s2.34-.5,3.03-1.52c.69-1.01,1.03-2.49,1.03-4.43s-.35-3.26-1.04-4.24c-.7-.97-1.7-1.46-3.02-1.46Z"/>
		<path d="M49.06,184.4h.53c.9,0,1.36.49,1.36,1.46,0,.4-.1.74-.31,1.01-.21.27-.46.41-.77.41l-.32-.05-.48-.07c-.54,0-.8.51-.8,1.52v6.82c0,.75.05,1.29.16,1.62s.34.65.69.95c.58.44,1.36.67,2.34.67s1.73-.22,2.34-.67c.35-.28.59-.59.71-.94.12-.35.18-.9.18-1.63v-6.82c0-1.01-.28-1.52-.85-1.52l-.46.07-.32.05c-.31,0-.56-.13-.77-.41-.21-.27-.31-.61-.31-1.03,0-.96.45-1.43,1.35-1.43h.51l.87.17c.23.04.51.06.85.08s.67.03,1.01.03c.73,0,1.37-.04,1.91-.11l.9-.17h.53c.9,0,1.35.49,1.35,1.46,0,.42-.12.76-.34,1.02s-.52.39-.87.39l-.48-.05-.53-.07c-.58,0-.87.51-.87,1.52v6.98c0,1.33-.15,2.35-.46,3.07-.31.71-.86,1.32-1.65,1.83-1.12.72-2.65,1.08-4.59,1.08-1,0-1.85-.08-2.57-.25s-1.39-.44-2-.83c-.77-.47-1.31-1.08-1.63-1.83-.32-.74-.48-1.76-.48-3.07v-6.98c0-1.01-.29-1.52-.87-1.52l-.51.07-.5.05c-.38,0-.69-.13-.91-.38s-.33-.61-.33-1.05c0-.96.46-1.43,1.38-1.43h.5l.9.17c.26.04.56.06.91.08.34.02.69.03,1.02.03h.25c.64,0,1.19-.04,1.63-.11l.83-.17Z"/>
		<path d="M74.55,192.6c.43.09.76.17,1,.24.24.07.47.16.7.26.35.2.66.49.92.87.21.32.36.65.42.99.07.34.1.82.1,1.45v.67c0,.55.04.93.11,1.14.08.21.23.31.46.31l.69-.07h.09c.31,0,.57.14.78.41.21.28.32.63.32,1.06,0,.93-.49,1.4-1.47,1.4h-2.71c-.67,0-1.14-.18-1.4-.54-.17-.2-.29-.47-.36-.81-.07-.35-.1-.84-.1-1.49v-1.86c0-.54-.04-.93-.11-1.18-.25-.86-1.05-1.29-2.41-1.29h-1.49c-.47,0-.77.07-.88.22-.12.15-.17.49-.17,1.04v1.84c0,1.03.28,1.54.85,1.54l.5-.06c.08-.01.16-.03.24-.05.08-.02.17-.03.26-.03.38,0,.69.13.91.4s.33.61.33,1.04c0,.94-.46,1.41-1.38,1.41h-.5l-.9-.16c-.66-.06-1.35-.09-2.07-.09-.38,0-.75,0-1.1.02-.35.01-.68.04-.99.07l-.9.16h-.5c-.92,0-1.38-.48-1.38-1.44,0-.41.12-.75.36-1.01.24-.27.53-.4.88-.4.09,0,.26.03.5.08l.51.06c.58,0,.87-.49.87-1.47v-8.63c0-1.01-.29-1.52-.87-1.52l-.51.07-.5.05c-.38,0-.69-.13-.91-.38s-.33-.61-.33-1.05c0-.96.46-1.43,1.38-1.43l.5.09.9.11c.55.05,1.06.07,1.54.07l1.77-.09c.31,0,.93-.02,1.88-.05.95-.03,1.6-.05,1.95-.05h1.38c.67,0,1.29.12,1.85.36.56.24,1.05.57,1.48,1,.77.8,1.15,1.78,1.15,2.94,0,1.09-.29,1.93-.87,2.53-.58.6-1.51,1.03-2.78,1.29ZM69.24,187.48c-.14.21-.21.5-.21.87v2.64c0,.31.07.49.2.55s.5.09,1.11.09c1.44,0,2.48-.19,3.13-.57.65-.38.98-1,.98-1.84,0-1.5-1.01-2.25-3.03-2.25-1.16,0-1.89.17-2.18.51Z"/>
		<path d="M95.67,201.44h-1.06c-.52,0-.91-.12-1.16-.37-.25-.25-.44-.69-.56-1.33l-2.21-11.06c-.21-1-.52-1.5-.92-1.5l-.99.07c-.32,0-.58-.12-.78-.37-.2-.24-.3-.57-.3-.99,0-.89.58-1.33,1.75-1.33l.67.02,2.07.09c.23,0,.52,0,.88-.02.36-.01.78-.05,1.25-.09.15-.03.3-.05.45-.05h.33c.95,0,1.42.47,1.42,1.4,0,.37-.1.67-.29.91-.19.24-.44.36-.75.36l-.9-.07c-.43,0-.64.21-.64.62l.12.78,1.35,7.66.12,1.17c.01.12.03.22.05.29.01.07.05.13.09.2l.14-.51.16-1.2,1.86-10.18c.11-.52.23-.88.36-1.07.13-.19.34-.32.62-.38.28-.06.89-.09,1.83-.09h.63c.16,0,.36.02.58.07.38.11.64.58.78,1.41l1.61,10.05.16,1.41c0,.15,0,.27.02.36.02.08.05.17.09.24.03-.06.05-.12.05-.16.06-.2.1-.35.12-.44l.14-1.38,1.52-7.39.11-.81c0-.43-.21-.64-.62-.64l-.78.07h-.12c-.32,0-.58-.12-.77-.37s-.29-.56-.29-.95c0-.44.11-.79.34-1.06.23-.27.55-.4.96-.4h.44c.12,0,.34.03.67.1.32.07.65.12,1,.14.34.02.66.03.95.03l1.84-.08c.12-.04.28-.05.47-.05s.34,0,.45-.03c.98,0,1.47.45,1.47,1.35,0,.39-.11.71-.32.95-.21.24-.51.36-.9.36h-.76c-.41,0-.71.51-.9,1.54l-2.32,10.98c-.05.28-.12.54-.22.79-.1.25-.2.43-.29.54-.17.28-.53.41-1.08.41h-2.39c-.41,0-.74-.13-.96-.4-.23-.27-.4-.7-.5-1.3l-1.35-8.5-.18-2-.14-.51-.14.51-.23,2.03-1.52,8.48c-.06.23-.13.46-.21.69-.08.23-.15.41-.23.53-.17.32-.52.48-1.06.48h-1.1Z"/>
		<path d="M128.63,188.28l.11,1.79v.11c0,.51-.14.92-.42,1.25s-.65.49-1.09.49c-.41,0-.76-.17-1.04-.5s-.42-.75-.42-1.26l.12-1.21.02-.67c0-.29-.03-.51-.09-.65-.06-.14-.18-.25-.37-.35-.28-.17-.6-.25-.99-.25h-2.11c-.81,0-1.34,0-1.57.02-.24.02-.44.06-.61.14-.17.08-.29.19-.38.33-.08.15-.13.29-.13.42v2.66c0,.29.05.49.14.6.09.11.28.16.55.16h.62c.15,0,.31-.03.48-.09.17-.06.28-.12.34-.18l.14-.41.07-.55v-.53c0-.81.41-1.22,1.24-1.22.74,0,1.1.46,1.1,1.38v.14l-.12,2.53.12,2.67v.23c0,1.05-.39,1.58-1.18,1.58s-1.16-.55-1.16-1.64v-.39c0-.29-.07-.54-.2-.75s-.28-.31-.45-.31l-.25.07-.71-.07c-.49-.02-.74.3-.74.96v2.56c0,.49.05.82.16.98.12.12.24.2.36.23.11.03.22.06.31.08.09.02.2.04.32.06h2.23c.9,0,1.57-.05,2.01-.14.44-.09.73-.25.88-.48.12-.24.18-.62.18-1.14l-.02-.82-.02-.41c0-.64.14-1.14.42-1.5s.68-.54,1.18-.54c.44,0,.79.15,1.03.44.25.29.37.71.37,1.27l-.02.14-.16,2.21c0,.31,0,.61.01.9s.03.66.08,1.11l.02.55c0,.81-.47,1.22-1.4,1.22h-.64c-.23-.06-.41-.1-.53-.12-.21,0-1.22-.03-3.01-.09s-3.09-.09-3.9-.09c-1.64,0-2.97.06-4,.17l-1.01.12c-.92,0-1.38-.45-1.38-1.36,0-.41.12-.76.34-1.03s.53-.41.9-.41h.9c.6,0,.9-.5.9-1.49v-8.53c0-.53-.07-.91-.21-1.14-.14-.23-.37-.34-.69-.34l-.23.02h-.76c-.37,0-.67-.13-.9-.38-.23-.26-.34-.59-.34-1.02,0-.93.46-1.4,1.38-1.4h.5l.9.17c.31.04.79.06,1.46.08s1.23.03,1.69.03h2.46l4.71-.16,1.15-.02h.23c.87,0,1.31.4,1.31,1.19v.18l-.18,2.41Z"/>
		<path d="M146.72,188.28l.11,1.79v.11c0,.51-.14.92-.42,1.25s-.65.49-1.09.49c-.41,0-.76-.17-1.04-.5s-.42-.75-.42-1.26l.12-1.21.02-.67c0-.29-.03-.51-.09-.65-.06-.14-.18-.25-.37-.35-.28-.17-.6-.25-.99-.25h-2.11c-.81,0-1.34,0-1.57.02-.24.02-.44.06-.61.14-.17.08-.29.19-.38.33-.08.15-.13.29-.13.42v2.66c0,.29.05.49.14.6.09.11.28.16.55.16h.62c.15,0,.31-.03.48-.09.17-.06.28-.12.34-.18l.14-.41.07-.55v-.53c0-.81.41-1.22,1.24-1.22.74,0,1.1.46,1.1,1.38v.14l-.12,2.53.12,2.67v.23c0,1.05-.39,1.58-1.18,1.58s-1.16-.55-1.16-1.64v-.39c0-.29-.07-.54-.2-.75s-.28-.31-.45-.31l-.25.07-.71-.07c-.49-.02-.74.3-.74.96v2.56c0,.49.05.82.16.98.12.12.24.2.36.23.11.03.22.06.31.08.09.02.2.04.32.06h2.23c.9,0,1.57-.05,2.01-.14.44-.09.73-.25.88-.48.12-.24.18-.62.18-1.14l-.02-.82-.02-.41c0-.64.14-1.14.42-1.5s.68-.54,1.18-.54c.44,0,.79.15,1.03.44.25.29.37.71.37,1.27l-.02.14-.16,2.21c0,.31,0,.61.01.9s.03.66.08,1.11l.02.55c0,.81-.47,1.22-1.4,1.22h-.64c-.23-.06-.41-.1-.53-.12-.21,0-1.22-.03-3.01-.09s-3.09-.09-3.9-.09c-1.64,0-2.97.06-4,.17l-1.01.12c-.92,0-1.38-.45-1.38-1.36,0-.41.12-.76.34-1.03s.53-.41.9-.41h.9c.6,0,.9-.5.9-1.49v-8.53c0-.53-.07-.91-.21-1.14-.14-.23-.37-.34-.69-.34l-.23.02h-.76c-.37,0-.67-.13-.9-.38-.23-.26-.34-.59-.34-1.02,0-.93.46-1.4,1.38-1.4h.5l.9.17c.31.04.79.06,1.46.08s1.23.03,1.69.03h2.46l4.71-.16,1.15-.02h.23c.87,0,1.31.4,1.31,1.19v.18l-.18,2.41Z"/>
		<path d="M155.77,195.51v1.72c0,1.01.27,1.52.81,1.52l.46-.05c.22-.06.38-.09.49-.09.39,0,.69.13.91.4s.33.62.33,1.04c0,.95-.45,1.42-1.36,1.42l-.53-.07-.9-.09c-.41-.04-.73-.06-.94-.07-.21-.01-.56-.02-1.04-.02-.64,0-1.31.03-2,.09l-.9.09-.51.07c-.92,0-1.38-.48-1.38-1.45,0-.41.12-.75.36-1.02.24-.27.53-.4.88-.4.09,0,.26.03.5.09l.51.07c.58,0,.87-.51.87-1.54v-8.6c0-1.01-.29-1.52-.87-1.52l-.51.1-.5.06c-.38,0-.69-.13-.91-.38s-.33-.61-.33-1.05c0-.96.46-1.43,1.38-1.43l.5.09.9.11c.55.05,1.22.07,2,.07h.28c.66,0,1.23-.02,1.72-.07l.9-.11.53-.09c.9,0,1.35.49,1.35,1.46,0,.42-.11.76-.34,1.02s-.53.39-.9.39l-.48-.06-.46-.1c-.55,0-.83.51-.83,1.53v3.64l4.73-4.13c.58-.49.87-.85.87-1.08,0-.12-.04-.2-.12-.24-.08-.04-.36-.09-.85-.16-.49-.07-.74-.42-.74-1.04,0-.75.47-1.12,1.4-1.12h.32l2.55.18c.46,0,.9-.02,1.31-.07.41-.05.75-.08,1.01-.11h.57c.93,0,1.4.44,1.4,1.32,0,.39-.09.73-.28.99-.18.26-.42.4-.71.4l-.55-.09h-.37c-.18,0-.35.03-.49.1s-.32.18-.52.35l-.62.57-3.19,2.73-.29.25c-.09.11-.17.21-.25.32-.02.01-.03.04-.05.07,0,.14.17.44.51.92l3.49,5.07c.54.79,1.01,1.19,1.42,1.19l.11.02.57-.09h.21c.37,0,.67.13.91.38.24.25.36.59.36,1s-.13.77-.39,1.03c-.26.26-.6.39-1.03.39h-.11l-2.7-.18c-.35.04-.81.08-1.37.12-.57.04-1,.06-1.31.06h-.27c-1.02,0-1.53-.38-1.53-1.13,0-.06.02-.15.06-.27.04-.12.06-.21.08-.29.08-.2.15-.33.23-.39.08-.06.24-.14.5-.23l.41-.12c.29-.12.43-.26.43-.42s-.11-.4-.32-.74l-2.51-3.7-.25-.39c-.03-.09-.1-.14-.21-.14-.09,0-.18.04-.28.13l-.24.24-1.89,1.53Z"/>
		<path d="M184.82,197.62l.07,2.34c0,.54-.11.91-.34,1.12-.23.21-.64.32-1.24.32-.2,0-.6-.01-1.19-.03-.6-.02-1-.03-1.19-.03-1,0-1.8,0-2.41-.02-2.42-.06-3.7-.09-3.83-.09-1.09,0-1.97.04-2.66.13l-.9.13h-.5c-.92,0-1.38-.48-1.38-1.44,0-.41.12-.75.36-1.01.24-.27.53-.4.88-.4.09,0,.26.03.5.09l.51.07c.58,0,.87-.51.87-1.54v-8.58c0-1.01-.29-1.52-.87-1.52l-.51.07-.5.05c-.38,0-.69-.13-.91-.38s-.33-.61-.33-1.05c0-.96.46-1.43,1.38-1.43h.5l.9.17c.55.07,1.28.11,2.18.11h.55c.64,0,1.18-.04,1.61-.11l.9-.17h.53c.9,0,1.35.48,1.35,1.43,0,.44-.11.79-.34,1.05-.23.26-.55.39-.96.39-.09,0-.2,0-.32-.02-.12-.02-.22-.03-.3-.04l-.5-.05c-.57,0-.85.51-.85,1.52v8.31c0,.49,0,.81.02.95.01.15.08.3.18.47.11.17.31.28.6.32.29.05.93.07,1.93.07.73,0,1.28-.01,1.64-.05.36-.03.66-.09.91-.18.49-.15.73-.53.73-1.12l-.07-.8-.07-1.1c0-1.25.55-1.88,1.65-1.88s1.63.59,1.63,1.77v.18l-.18,2.02Z"/>
		<path d="M192.49,192.07l2.11-3.9.25-.48.07-.3c0-.23-.2-.37-.59-.41-.39-.05-.63-.08-.71-.11-.08-.03-.18-.13-.29-.3-.17-.18-.25-.45-.25-.8,0-.86.47-1.29,1.42-1.29l1.33.12c.49.08.96.11,1.4.11.23,0,.52,0,.88-.02s.79-.05,1.27-.09h.69c1.09,0,1.63.47,1.63,1.41,0,.36-.11.67-.32.93-.21.26-.48.39-.78.39l-.83-.09h-.18c-.23,0-.43.07-.61.21-.18.14-.38.39-.61.76l-4.17,6.66c-.09.11-.15.23-.16.37v2.14c0,.96.31,1.45.94,1.45l.55-.05.5-.07c.31,0,.58.12.83.37.24.25.37.52.37.83,0,.44-.15.82-.44,1.12-.29.31-.66.46-1.11.46l-.83-.09c-.77-.09-1.63-.14-2.58-.14s-1.78.05-2.56.14l-.83.09c-.45,0-.82-.15-1.11-.46-.29-.31-.44-.68-.44-1.12,0-.31.12-.58.37-.83.25-.24.53-.37.85-.37l.51.07.55.05c.32,0,.55-.11.7-.33.15-.22.22-.59.22-1.11v-1.93c-.06-.29-.12-.48-.16-.57l-4.26-6.66c-.4-.64-.81-.96-1.22-.96h-.16l-.83.09c-.31,0-.57-.12-.79-.38-.22-.25-.33-.57-.33-.94,0-.94.55-1.41,1.65-1.41h.69c.4.05.78.08,1.15.09s.71.02,1.03.02c.46,0,.93-.04,1.4-.11l1.33-.12c.96,0,1.45.44,1.45,1.33,0,.17-.03.32-.09.45-.06.13-.12.23-.16.31-.12.17-.25.28-.37.33-.12.05-.38.08-.78.08-.29.05-.44.18-.44.41,0,.08.01.15.05.23.03.08.12.26.28.55l2.11,3.9.18.64.23-.64Z"/>
		<path d="M220.04,185.91v-.25c0-.77.44-1.15,1.31-1.15.34,0,.6.1.8.3s.3.47.3.83v.09l-.12,1.68c-.02.09-.02.19-.02.3v.64c.07.35.11.63.14.83v.62c0,.96-.46,1.45-1.37,1.45s-1.41-.52-1.41-1.56c0-.37-.03-.65-.08-.86-.05-.21-.16-.42-.31-.63-.66-.86-1.62-1.29-2.87-1.29-.77,0-1.41.2-1.92.6-.51.4-.76.89-.76,1.47,0,.29.1.57.3.85.2.28.44.47.73.6.29.12.57.22.83.29.26.07.65.15,1.17.24.08.02.48.1,1.22.25.38.08.64.14.78.18.37.06.73.17,1.09.31.36.15.72.33,1.09.56,1.42.81,2.14,2.1,2.14,3.86,0,1.62-.57,2.96-1.7,4-1.13,1.04-2.6,1.56-4.39,1.56-.98,0-1.86-.15-2.64-.46-.43-.15-1.04-.54-1.84-1.17,0,.54-.11.92-.32,1.15-.21.23-.56.34-1.03.34-.84,0-1.26-.54-1.26-1.61,0-.37.02-.65.05-.85.09-1.06.13-1.69.12-1.91l-.16-1.63v-.11c0-.84.49-1.26,1.47-1.26.29,0,.56.08.8.23.05.03.11.07.2.13s.16.13.24.22c.17.18.28.42.32.71l.09.94c.08.54.21.95.39,1.23.18.28.5.55.94.79.67.34,1.43.5,2.27.5.92,0,1.63-.22,2.15-.65.51-.44.77-1.04.77-1.8,0-1.04-.62-1.7-1.86-1.97l-1.29-.28c-.98-.21-1.78-.42-2.4-.63-.62-.21-1.18-.44-1.67-.7-.64-.38-1.15-.89-1.52-1.53-.37-.63-.55-1.35-.55-2.15,0-1.47.52-2.66,1.56-3.56,1.04-.9,2.4-1.35,4.09-1.35.78,0,1.48.11,2.11.32.46.15.8.3,1.03.45.23.15.56.43.99.86Z"/>
		<path d="M225.6,192.87c0-2.71.68-4.82,2.04-6.33,1.36-1.51,3.27-2.26,5.72-2.26s4.34.75,5.71,2.26c1.37,1.51,2.05,3.61,2.05,6.3,0,2.43-.6,4.48-1.79,6.13-.67.93-1.48,1.61-2.41,2.02s-2.12.62-3.56.62-2.63-.2-3.54-.6c-.9-.4-1.71-1.08-2.43-2.04-1.19-1.59-1.79-3.63-1.79-6.11ZM233.39,187.15c-1.32,0-2.33.49-3.03,1.46-.71.97-1.06,2.38-1.06,4.21,0,1.94.35,3.42,1.04,4.44.7,1.02,1.71,1.53,3.04,1.53s2.34-.5,3.03-1.52c.69-1.01,1.03-2.49,1.03-4.43s-.35-3.26-1.04-4.24c-.7-.97-1.7-1.46-3.02-1.46Z"/>
		<path d="M250.36,184.4h.53c.9,0,1.36.49,1.36,1.46,0,.4-.1.74-.31,1.01-.21.27-.46.41-.77.41l-.32-.05-.48-.07c-.54,0-.8.51-.8,1.52v6.82c0,.75.05,1.29.16,1.62s.34.65.69.95c.58.44,1.36.67,2.34.67s1.73-.22,2.34-.67c.35-.28.59-.59.71-.94.12-.35.18-.9.18-1.63v-6.82c0-1.01-.28-1.52-.85-1.52l-.46.07-.32.05c-.31,0-.56-.13-.77-.41-.21-.27-.31-.61-.31-1.03,0-.96.45-1.43,1.35-1.43h.51l.87.17c.23.04.51.06.85.08s.67.03,1.01.03c.73,0,1.37-.04,1.91-.11l.9-.17h.53c.9,0,1.35.49,1.35,1.46,0,.42-.12.76-.34,1.02s-.52.39-.87.39l-.48-.05-.53-.07c-.58,0-.87.51-.87,1.52v6.98c0,1.33-.15,2.35-.46,3.07-.31.71-.86,1.32-1.65,1.83-1.12.72-2.65,1.08-4.59,1.08-1,0-1.85-.08-2.57-.25s-1.39-.44-2-.83c-.77-.47-1.31-1.08-1.63-1.83-.32-.74-.48-1.76-.48-3.07v-6.98c0-1.01-.29-1.52-.87-1.52l-.51.07-.5.05c-.38,0-.69-.13-.91-.38s-.33-.61-.33-1.05c0-.96.46-1.43,1.38-1.43h.5l.9.17c.26.04.56.06.91.08.34.02.69.03,1.02.03h.25c.64,0,1.19-.04,1.63-.11l.83-.17Z"/>
		<path d="M275.85,192.6c.43.09.76.17,1,.24.24.07.47.16.7.26.35.2.66.49.92.87.21.32.36.65.42.99.07.34.1.82.1,1.45v.67c0,.55.04.93.11,1.14.08.21.23.31.46.31l.69-.07h.09c.31,0,.57.14.78.41.21.28.32.63.32,1.06,0,.93-.49,1.4-1.47,1.4h-2.71c-.67,0-1.14-.18-1.4-.54-.17-.2-.29-.47-.36-.81-.07-.35-.1-.84-.1-1.49v-1.86c0-.54-.04-.93-.11-1.18-.25-.86-1.05-1.29-2.41-1.29h-1.49c-.47,0-.77.07-.88.22-.12.15-.17.49-.17,1.04v1.84c0,1.03.28,1.54.85,1.54l.5-.06c.08-.01.16-.03.24-.05.08-.02.17-.03.26-.03.38,0,.69.13.91.4s.33.61.33,1.04c0,.94-.46,1.41-1.38,1.41h-.5l-.9-.16c-.66-.06-1.35-.09-2.07-.09-.38,0-.75,0-1.1.02-.35.01-.68.04-.99.07l-.9.16h-.5c-.92,0-1.38-.48-1.38-1.44,0-.41.12-.75.36-1.01.24-.27.53-.4.88-.4.09,0,.26.03.5.08l.51.06c.58,0,.87-.49.87-1.47v-8.63c0-1.01-.29-1.52-.87-1.52l-.51.07-.5.05c-.38,0-.69-.13-.91-.38s-.33-.61-.33-1.05c0-.96.46-1.43,1.38-1.43l.5.09.9.11c.55.05,1.06.07,1.54.07l1.77-.09c.31,0,.93-.02,1.88-.05.95-.03,1.6-.05,1.95-.05h1.38c.67,0,1.29.12,1.85.36.56.24,1.05.57,1.48,1,.77.8,1.15,1.78,1.15,2.94,0,1.09-.29,1.93-.87,2.53-.58.6-1.51,1.03-2.78,1.29ZM270.54,187.48c-.14.21-.21.5-.21.87v2.64c0,.31.07.49.2.55s.5.09,1.11.09c1.44,0,2.48-.19,3.13-.57.65-.38.98-1,.98-1.84,0-1.5-1.01-2.25-3.03-2.25-1.16,0-1.89.17-2.18.51Z"/>
		<path d="M294.29,186.14l.02-.62c0-.83.4-1.24,1.21-1.24s1.16.48,1.16,1.45v.44c-.03.4-.06.77-.08,1.11-.02.34-.03.62-.03.84l.12,2.02v.18c0,1.13-.51,1.7-1.54,1.7-.46,0-.83-.13-1.11-.38-.28-.25-.42-.59-.42-1v-1.17c0-.28-.1-.59-.29-.94-.19-.35-.41-.62-.64-.8s-.59-.34-1.05-.48c-.47-.14-.9-.21-1.32-.21-.58,0-1.14.15-1.69.46-.55.31-.99.71-1.33,1.22-.27.46-.5,1.05-.66,1.78-.17.73-.25,1.5-.25,2.33,0,.23.01.49.03.78.02.29.07.69.14,1.18.07.5.17.95.3,1.35.13.41.31.78.54,1.11.31.47.77.87,1.4,1.17.63.31,1.28.46,1.95.46.83,0,1.56-.23,2.19-.7.63-.47.95-1.01.95-1.62l.02-1.19c0-1,.55-1.49,1.64-1.49.58,0,.99.14,1.23.41.24.28.37.76.37,1.45,0,1.87-.57,3.31-1.72,4.34-1.15,1.03-2.78,1.54-4.91,1.54-1.3,0-2.4-.18-3.31-.54-.91-.36-1.71-.93-2.4-1.71-1.44-1.62-2.16-3.73-2.16-6.31s.66-4.73,1.99-6.35,3.05-2.42,5.18-2.42c.8,0,1.55.12,2.27.37.47.15.84.32,1.1.49.26.18.63.51,1.1,1Z"/>
		<path d="M314.38,188.28l.11,1.79v.11c0,.51-.14.92-.42,1.25s-.65.49-1.09.49c-.41,0-.76-.17-1.04-.5s-.42-.75-.42-1.26l.12-1.21.02-.67c0-.29-.03-.51-.09-.65-.06-.14-.18-.25-.37-.35-.28-.17-.6-.25-.99-.25h-2.11c-.81,0-1.34,0-1.57.02-.24.02-.44.06-.61.14-.17.08-.29.19-.38.33-.08.15-.13.29-.13.42v2.66c0,.29.05.49.14.6.09.11.28.16.55.16h.62c.15,0,.31-.03.48-.09.17-.06.28-.12.34-.18l.14-.41.07-.55v-.53c0-.81.41-1.22,1.24-1.22.74,0,1.1.46,1.1,1.38v.14l-.12,2.53.12,2.67v.23c0,1.05-.39,1.58-1.18,1.58s-1.16-.55-1.16-1.64v-.39c0-.29-.07-.54-.2-.75s-.28-.31-.45-.31l-.25.07-.71-.07c-.49-.02-.74.3-.74.96v2.56c0,.49.05.82.16.98.12.12.24.2.36.23.11.03.22.06.31.08.09.02.2.04.32.06h2.23c.9,0,1.57-.05,2.01-.14.44-.09.73-.25.88-.48.12-.24.18-.62.18-1.14l-.02-.82-.02-.41c0-.64.14-1.14.42-1.5s.68-.54,1.18-.54c.44,0,.79.15,1.03.44.25.29.37.71.37,1.27l-.02.14-.16,2.21c0,.31,0,.61.01.9s.03.66.08,1.11l.02.55c0,.81-.47,1.22-1.4,1.22h-.64c-.23-.06-.41-.1-.53-.12-.21,0-1.22-.03-3.01-.09s-3.09-.09-3.9-.09c-1.64,0-2.97.06-4,.17l-1.01.12c-.92,0-1.38-.45-1.38-1.36,0-.41.12-.76.34-1.03s.53-.41.9-.41h.9c.6,0,.9-.5.9-1.49v-8.53c0-.53-.07-.91-.21-1.14-.14-.23-.37-.34-.69-.34l-.23.02h-.76c-.37,0-.67-.13-.9-.38-.23-.26-.34-.59-.34-1.02,0-.93.46-1.4,1.38-1.4h.5l.9.17c.31.04.79.06,1.46.08s1.23.03,1.69.03h2.46l4.71-.16,1.15-.02h.23c.87,0,1.31.4,1.31,1.19v.18l-.18,2.41Z"/>
	</g>
	<g>
		<path d="M460,188.99l-.09-.67c-.05-.38-.1-.64-.15-.77s-.14-.24-.26-.33c-.25-.12-.6-.18-1.06-.18-.55,0-.95.12-1.18.36-.24.24-.36.63-.36,1.18v8.66c0,1.03.29,1.54.87,1.54l.53-.06c.21-.05.38-.08.48-.08.37,0,.66.13.88.4s.33.61.33,1.04c0,.94-.45,1.41-1.35,1.41h-.51l-.92-.13c-.66-.08-1.34-.13-2.04-.13s-1.41.04-2.07.13l-.9.13h-.53c-.9,0-1.36-.48-1.36-1.44,0-.41.12-.75.36-1.01s.52-.4.86-.4c.11,0,.27.03.48.08l.53.06c.58,0,.87-.51.87-1.54v-8.66c0-.55-.12-.94-.36-1.18-.24-.24-.63-.36-1.18-.36-.49,0-.83.06-1.01.18-.12.08-.21.18-.28.3-.06.12-.12.39-.18.8l-.09.67-.05.67c-.08.52-.15.91-.23,1.17-.08.26-.16.45-.25.57-.26.34-.61.5-1.06.5-.4,0-.74-.15-1.01-.44-.28-.29-.41-.64-.41-1.06l.06-1.13c.07-.49.1-.9.1-1.24,0-.21-.01-.52-.04-.91-.02-.39-.07-.87-.13-1.44v-.3c0-.61.37-.92,1.1-.92l3.31.18h6.87l3.33-.18c.72,0,1.08.31,1.08.92v.3c-.05.43-.08.86-.12,1.3-.03.44-.05.78-.05,1.04v.71c.05.25.08.42.09.53l.07,1.13c0,.41-.14.77-.41,1.06-.28.29-.61.44-1.01.44-.11,0-.19-.01-.25-.03-.06-.02-.13-.05-.21-.08-.31-.12-.51-.26-.61-.4s-.2-.38-.29-.71-.14-.67-.14-1.02l-.09-.67Z"/>
		<path d="M479.43,188.28l.11,1.79v.11c0,.51-.14.92-.42,1.25s-.65.49-1.09.49c-.41,0-.76-.17-1.04-.5s-.42-.75-.42-1.26l.12-1.21.02-.67c0-.29-.03-.51-.09-.65-.06-.14-.18-.25-.37-.35-.28-.17-.6-.25-.99-.25h-2.11c-.81,0-1.34,0-1.57.02-.24.02-.44.06-.61.14-.17.08-.29.19-.38.33-.08.15-.13.29-.13.42v2.66c0,.29.05.49.14.6.09.11.28.16.55.16h.62c.15,0,.31-.03.48-.09.17-.06.28-.12.34-.18l.14-.41.07-.55v-.53c0-.81.41-1.22,1.24-1.22.74,0,1.1.46,1.1,1.38v.14l-.12,2.53.12,2.67v.23c0,1.05-.39,1.58-1.18,1.58s-1.16-.55-1.16-1.64v-.39c0-.29-.07-.54-.2-.75s-.28-.31-.45-.31l-.25.07-.71-.07c-.49-.02-.74.3-.74.96v2.56c0,.49.05.82.16.98.12.12.24.2.36.23.11.03.22.06.31.08.09.02.2.04.32.06h2.23c.9,0,1.57-.05,2.01-.14.44-.09.73-.25.88-.48.12-.24.18-.62.18-1.14l-.02-.82-.02-.41c0-.64.14-1.14.42-1.5s.68-.54,1.18-.54c.44,0,.79.15,1.03.44.25.29.37.71.37,1.27l-.02.14-.16,2.21c0,.31,0,.61.01.9s.03.66.08,1.11l.02.55c0,.81-.47,1.22-1.4,1.22h-.64c-.23-.06-.41-.1-.53-.12-.21,0-1.22-.03-3.01-.09s-3.09-.09-3.9-.09c-1.64,0-2.97.06-4,.17l-1.01.12c-.92,0-1.38-.45-1.38-1.36,0-.41.12-.76.34-1.03s.53-.41.9-.41h.9c.6,0,.9-.5.9-1.49v-8.53c0-.53-.07-.91-.21-1.14-.14-.23-.37-.34-.69-.34l-.23.02h-.76c-.37,0-.67-.13-.9-.38-.23-.26-.34-.59-.34-1.02,0-.93.46-1.4,1.38-1.4h.5l.9.17c.31.04.79.06,1.46.08s1.23.03,1.69.03h2.46l4.71-.16,1.15-.02h.23c.87,0,1.31.4,1.31,1.19v.18l-.18,2.41Z"/>
		<path d="M494.24,186.14l.02-.62c0-.83.4-1.24,1.21-1.24s1.16.48,1.16,1.45v.44c-.03.4-.06.77-.08,1.11-.02.34-.03.62-.03.84l.12,2.02v.18c0,1.13-.51,1.7-1.54,1.7-.46,0-.83-.13-1.11-.38-.28-.25-.42-.59-.42-1v-1.17c0-.28-.1-.59-.29-.94-.19-.35-.41-.62-.64-.8s-.59-.34-1.05-.48c-.47-.14-.9-.21-1.32-.21-.58,0-1.14.15-1.69.46-.55.31-.99.71-1.33,1.22-.27.46-.5,1.05-.66,1.78-.17.73-.25,1.5-.25,2.33,0,.23.01.49.03.78.02.29.07.69.14,1.18.07.5.17.95.3,1.35.13.41.31.78.54,1.11.31.47.77.87,1.4,1.17.63.31,1.28.46,1.95.46.83,0,1.56-.23,2.19-.7.63-.47.95-1.01.95-1.62l.02-1.19c0-1,.55-1.49,1.64-1.49.58,0,.99.14,1.23.41.24.28.37.76.37,1.45,0,1.87-.57,3.31-1.72,4.34-1.15,1.03-2.78,1.54-4.91,1.54-1.3,0-2.4-.18-3.31-.54-.91-.36-1.71-.93-2.4-1.71-1.44-1.62-2.16-3.73-2.16-6.31s.66-4.73,1.99-6.35,3.05-2.42,5.18-2.42c.8,0,1.55.12,2.27.37.47.15.84.32,1.1.49.26.18.63.51,1.1,1Z"/>
		<path d="M500.62,201.48h-.5c-.92,0-1.38-.48-1.38-1.44,0-.41.12-.75.36-1.01.24-.27.53-.4.88-.4.09,0,.26.03.5.09l.51.07c.58,0,.87-.52.87-1.55v-8.62c0-1.02-.29-1.53-.87-1.53l-.51.14h-.5c-.38,0-.69-.13-.91-.38-.22-.25-.33-.6-.33-1.04,0-.95.46-1.42,1.38-1.42h.5l.9.17c.26.04.56.06.91.08.34.02.69.03,1.02.03h.25c.63,0,1.15-.04,1.56-.11l.8-.17h.51c.92,0,1.38.5,1.38,1.5,0,.37-.09.69-.28.95-.18.26-.41.39-.69.39h-.34l-.48-.14c-.54,0-.8.51-.8,1.54v2.2c0,.16.03.26.09.33h6.08c.08-.05.12-.16.12-.33v-2.2c0-1.03-.27-1.54-.8-1.54l-.48.14h-.32c-.31,0-.55-.12-.74-.37-.18-.25-.28-.58-.28-1,0-.99.46-1.48,1.38-1.48h.5l.8.17c.23.04.5.06.83.08.32.02.65.03.99.03h.25c.64,0,1.2-.04,1.68-.11l.9-.17h.5c.92,0,1.38.48,1.38,1.45,0,.4-.11.73-.33,1s-.52.4-.88.4h-.5l-.53-.14c-.57,0-.85.51-.85,1.53v8.62c0,1.03.28,1.55.85,1.55l.53-.07c.24-.06.41-.09.48-.09.38,0,.68.13.91.4s.33.61.33,1.04c0,.94-.46,1.41-1.38,1.41h-.5l-.9-.13c-.5-.08-1.15-.13-1.93-.13-.32,0-.64,0-.94.03-.31.02-.6.05-.87.1l-.8.13h-.5c-.92,0-1.38-.49-1.38-1.48,0-.39.09-.71.28-.97s.42-.39.71-.39l.34.06.53.1c.5,0,.76-.52.76-1.56v-2.91c0-.23-.02-.37-.07-.42h-6.15s-.07.19-.07.42v2.91c0,.51.07.9.2,1.16.13.26.32.4.56.4l.53-.1.32-.06c.29,0,.53.12.71.37.18.25.28.59.28,1.02,0,.97-.46,1.46-1.38,1.46h-.51l-.8-.13c-.26-.05-.6-.08-1.03-.1-.43-.02-.69-.03-.78-.03-.34,0-.67,0-.99.03-.32.02-.64.05-.94.1l-.9.13Z"/>
		<path d="M528.46,201.41l-.5.07c-.92,0-1.38-.49-1.38-1.47,0-.42.12-.77.36-1.04.24-.27.53-.41.88-.41.09,0,.26.04.5.12l.51.09c.58,0,.87-.51.87-1.54v-8.57c0-1.01-.29-1.52-.87-1.52l-.51.07-.5.05c-.38,0-.69-.13-.91-.38s-.33-.61-.33-1.05c0-.96.46-1.43,1.38-1.43h.5l.9.17c.55.07,1.25.11,2.11.11l2.64-.07,2.04-.09c1.27,0,2.36.21,3.26.62s1.71,1.08,2.41,2c1.19,1.55,1.79,3.48,1.79,5.79,0,1.79-.4,3.41-1.19,4.87-.57,1.04-1.29,1.87-2.18,2.48-.66.46-1.27.77-1.83.92-.56.15-1.37.23-2.45.23-.41,0-.74,0-.96-.02-1.13-.08-1.78-.12-1.93-.12l-1.72-.05c-.35,0-.7,0-1.03.02-.34.01-.66.04-.96.07l-.9.09ZM533.16,188.07v9.1c0,.57.03.93.09,1.09.06.16.27.3.61.42.35.12.8.18,1.37.18,1.5,0,2.66-.49,3.48-1.47.81-.98,1.22-2.39,1.22-4.24,0-4-1.65-6-4.94-6-.67,0-1.15.07-1.42.21s-.41.37-.41.71Z"/>
		<path d="M552.82,184.4h.53c.9,0,1.36.49,1.36,1.46,0,.4-.1.74-.31,1.01-.21.27-.46.41-.77.41l-.32-.05-.48-.07c-.54,0-.8.51-.8,1.52v6.82c0,.75.05,1.29.16,1.62s.34.65.69.95c.58.44,1.36.67,2.34.67s1.73-.22,2.34-.67c.35-.28.59-.59.71-.94.12-.35.18-.9.18-1.63v-6.82c0-1.01-.28-1.52-.85-1.52l-.46.07-.32.05c-.31,0-.56-.13-.77-.41-.21-.27-.31-.61-.31-1.03,0-.96.45-1.43,1.35-1.43h.51l.87.17c.23.04.51.06.85.08s.67.03,1.01.03c.73,0,1.37-.04,1.91-.11l.9-.17h.53c.9,0,1.35.49,1.35,1.46,0,.42-.12.76-.34,1.02s-.52.39-.87.39l-.48-.05-.53-.07c-.58,0-.87.51-.87,1.52v6.98c0,1.33-.15,2.35-.46,3.07-.31.71-.86,1.32-1.65,1.83-1.12.72-2.65,1.08-4.59,1.08-1,0-1.85-.08-2.57-.25s-1.39-.44-2-.83c-.77-.47-1.31-1.08-1.63-1.83-.32-.74-.48-1.76-.48-3.07v-6.98c0-1.01-.29-1.52-.87-1.52l-.51.07-.5.05c-.38,0-.69-.13-.91-.38s-.33-.61-.33-1.05c0-.96.46-1.43,1.38-1.43h.5l.9.17c.26.04.56.06.91.08.34.02.69.03,1.02.03h.25c.64,0,1.19-.04,1.63-.11l.83-.17Z"/>
		<path d="M572.59,188.37l.21,8.88c0,1,.27,1.49.8,1.49l.48-.06c.08-.04.2-.06.37-.06.32,0,.59.13.81.41.22.27.33.61.33,1.01,0,.96-.47,1.44-1.4,1.44h-.48l-.8-.13c-.61-.08-1.25-.13-1.91-.13s-1.35.04-2.04.13l-.9.13h-.5c-.92,0-1.38-.48-1.38-1.44,0-.41.12-.75.36-1.01.24-.27.53-.4.88-.4.09,0,.26.03.5.08l.51.06c.58,0,.87-.51.87-1.54v-8.57c0-1.01-.29-1.52-.87-1.52l-.51.07-.5.05c-.38,0-.69-.13-.91-.38s-.33-.61-.33-1.05c0-.96.46-1.43,1.38-1.43h.5l.9.17c.26.04.56.06.91.08.34.02.69.03,1.02.03.83,0,1.79-.08,2.89-.25l.67-.03c.37,0,.69.18.96.53.12.14.21.3.28.49l.21.65.5,2.15.87,3.49c.38,1.48.69,2.95.92,4.4.03.29.07.52.12.69,0,.03.02.08.07.14l.21-.83c.14-.94.36-2.1.68-3.47.31-1.37.68-2.85,1.09-4.42l.53-2.15c.26-1.11.73-1.67,1.42-1.67l.69.03c1.1.16,2.05.25,2.85.25.75,0,1.39-.04,1.93-.11l.87-.17h.53c.92,0,1.38.49,1.38,1.46,0,.42-.11.76-.34,1.02s-.52.39-.87.39l-.5-.05-.53-.07c-.58,0-.87.51-.87,1.52v8.57c0,1.03.29,1.54.87,1.54l.53-.06c.24-.05.41-.08.48-.08.38,0,.68.13.91.4.22.27.33.61.33,1.04,0,.94-.46,1.41-1.38,1.41h-.53l-.87-.13c-.66-.08-1.34-.13-2.04-.13-.26,0-.52,0-.78.01-.26,0-.63.05-1.1.11l-.83.13h-.51c-.9,0-1.35-.48-1.35-1.44,0-.4.11-.74.32-1.01.21-.27.48-.41.8-.41l.39.06.44.06c.57,0,.85-.5.85-1.52l.18-8.86.07-.67.02-.07c0-.28-.06-.41-.18-.41-.05.06-.08.11-.09.14-.06.11-.11.21-.14.32l-.21.76-3.31,11.64c-.15.55-.36.92-.62,1.12-.26.19-.68.29-1.26.29s-1.02-.12-1.4-.35l-.28-.28c-.11-.14-.21-.4-.3-.78l-3.31-11.64-.21-.76c-.08-.31-.18-.46-.32-.46-.03.05-.05.08-.05.09-.05.11-.07.19-.07.25v.16l.09.64Z"/>
		<path d="M593.6,201.48h-.5c-.92,0-1.38-.48-1.38-1.44,0-.41.12-.75.36-1.01.24-.27.53-.4.88-.4.09,0,.26.02.5.07l.51.05c.58,0,.87-.51.87-1.53v-8.53c0-1.01-.29-1.51-.87-1.51h-.51l-.5.09c-.38,0-.69-.12-.91-.37-.22-.25-.33-.59-.33-1.03,0-.93.46-1.4,1.38-1.4h.5l.9.12c.73.07,1.16.1,1.29.1h.51c.35-.06.82-.11,1.41-.16.59-.05,1.22-.07,1.89-.07l1.88-.07c1.91,0,3.37.43,4.36,1.3,1.13.96,1.7,2.22,1.7,3.77s-.5,2.72-1.49,3.68c-.55.55-1.18.92-1.88,1.12-1.03.31-2.21.46-3.56.46h-1.47c-.35,0-.57.05-.67.16s-.14.37-.14.78v1.55c0,1.02.33,1.53.99,1.53l.71-.05c.08-.01.16-.02.24-.04s.17-.02.26-.02c.37,0,.66.13.88.4s.33.61.33,1.04c0,.94-.46,1.41-1.38,1.41h-.48l-.92-.13c-.66-.08-1.39-.13-2.21-.13s-1.58.04-2.27.13l-.9.13ZM598.45,192.02c.08.11.36.16.85.16h1.35c.98,0,1.76-.23,2.33-.69.57-.46.86-1.08.86-1.86,0-1.64-1.12-2.46-3.35-2.46-1.1,0-1.76.12-1.97.37-.12.14-.18.46-.18.97v2.54c0,.57.04.89.12.97Z"/>
		<path d="M619.35,185.91v-.25c0-.77.44-1.15,1.31-1.15.34,0,.6.1.8.3s.3.47.3.83v.09l-.12,1.68c-.02.09-.02.19-.02.3v.64c.07.35.11.63.14.83v.62c0,.96-.46,1.45-1.37,1.45s-1.41-.52-1.41-1.56c0-.37-.03-.65-.08-.86-.05-.21-.16-.42-.31-.63-.66-.86-1.62-1.29-2.87-1.29-.77,0-1.41.2-1.92.6-.51.4-.76.89-.76,1.47,0,.29.1.57.3.85.2.28.44.47.73.6.29.12.57.22.83.29.26.07.65.15,1.17.24.08.02.48.1,1.22.25.38.08.64.14.78.18.37.06.73.17,1.09.31.36.15.72.33,1.09.56,1.42.81,2.14,2.1,2.14,3.86,0,1.62-.57,2.96-1.7,4-1.13,1.04-2.6,1.56-4.39,1.56-.98,0-1.86-.15-2.64-.46-.43-.15-1.04-.54-1.84-1.17,0,.54-.11.92-.32,1.15-.21.23-.56.34-1.03.34-.84,0-1.26-.54-1.26-1.61,0-.37.02-.65.05-.85.09-1.06.13-1.69.12-1.91l-.16-1.63v-.11c0-.84.49-1.26,1.47-1.26.29,0,.56.08.8.23.05.03.11.07.2.13s.16.13.24.22c.17.18.28.42.32.71l.09.94c.08.54.21.95.39,1.23.18.28.5.55.94.79.67.34,1.43.5,2.27.5.92,0,1.63-.22,2.15-.65.51-.44.77-1.04.77-1.8,0-1.04-.62-1.7-1.86-1.97l-1.29-.28c-.98-.21-1.78-.42-2.4-.63-.62-.21-1.18-.44-1.67-.7-.64-.38-1.15-.89-1.52-1.53-.37-.63-.55-1.35-.55-2.15,0-1.47.52-2.66,1.56-3.56,1.04-.9,2.4-1.35,4.09-1.35.78,0,1.48.11,2.11.32.46.15.8.3,1.03.45.23.15.56.43.99.86Z"/>
	</g>
	<g>
		<path d="M725.89,192.6c.43.09.76.17,1,.24.24.07.47.16.7.26.35.2.66.49.92.87.21.32.36.65.42.99.07.34.1.82.1,1.45v.67c0,.55.04.93.11,1.14.08.21.23.31.46.31l.69-.07h.09c.31,0,.57.14.78.41.21.28.32.63.32,1.06,0,.93-.49,1.4-1.47,1.4h-2.71c-.67,0-1.14-.18-1.4-.54-.17-.2-.29-.47-.36-.81-.07-.35-.1-.84-.1-1.49v-1.86c0-.54-.04-.93-.11-1.18-.25-.86-1.05-1.29-2.41-1.29h-1.49c-.47,0-.77.07-.88.22-.12.15-.17.49-.17,1.04v1.84c0,1.03.28,1.54.85,1.54l.5-.06c.08-.01.16-.03.24-.05.08-.02.17-.03.26-.03.38,0,.69.13.91.4s.33.61.33,1.04c0,.94-.46,1.41-1.38,1.41h-.5l-.9-.16c-.66-.06-1.35-.09-2.07-.09-.38,0-.75,0-1.1.02-.35.01-.68.04-.99.07l-.9.16h-.5c-.92,0-1.38-.48-1.38-1.44,0-.41.12-.75.36-1.01.24-.27.53-.4.88-.4.09,0,.26.03.5.08l.51.06c.58,0,.87-.49.87-1.47v-8.63c0-1.01-.29-1.52-.87-1.52l-.51.07-.5.05c-.38,0-.69-.13-.91-.38s-.33-.61-.33-1.05c0-.96.46-1.43,1.38-1.43l.5.09.9.11c.55.05,1.06.07,1.54.07l1.77-.09c.31,0,.93-.02,1.88-.05.95-.03,1.6-.05,1.95-.05h1.38c.67,0,1.29.12,1.85.36.56.24,1.05.57,1.48,1,.77.8,1.15,1.78,1.15,2.94,0,1.09-.29,1.93-.87,2.53-.58.6-1.51,1.03-2.78,1.29ZM720.58,187.48c-.14.21-.21.5-.21.87v2.64c0,.31.07.49.2.55s.5.09,1.11.09c1.44,0,2.48-.19,3.13-.57.65-.38.98-1,.98-1.84,0-1.5-1.01-2.25-3.03-2.25-1.16,0-1.89.17-2.18.51Z"/>
		<path d="M734.34,201.48h-.5c-.92,0-1.38-.48-1.38-1.44,0-.41.12-.75.36-1.01.24-.27.53-.4.88-.4.09,0,.26.02.5.07l.51.05c.58,0,.87-.51.87-1.53v-8.53c0-1.01-.29-1.51-.87-1.51h-.51l-.5.09c-.38,0-.69-.12-.91-.37-.22-.25-.33-.59-.33-1.03,0-.93.46-1.4,1.38-1.4h.5l.9.12c.73.07,1.16.1,1.29.1h.51c.35-.06.82-.11,1.41-.16.59-.05,1.22-.07,1.89-.07l1.88-.07c1.91,0,3.37.43,4.36,1.3,1.13.96,1.7,2.22,1.7,3.77s-.5,2.72-1.49,3.68c-.55.55-1.18.92-1.88,1.12-1.03.31-2.21.46-3.56.46h-1.47c-.35,0-.57.05-.67.16s-.14.37-.14.78v1.55c0,1.02.33,1.53.99,1.53l.71-.05c.08-.01.16-.02.24-.04s.17-.02.26-.02c.37,0,.66.13.88.4s.33.61.33,1.04c0,.94-.46,1.41-1.38,1.41h-.48l-.92-.13c-.66-.08-1.39-.13-2.21-.13s-1.58.04-2.27.13l-.9.13ZM739.18,192.02c.08.11.36.16.85.16h1.35c.98,0,1.76-.23,2.33-.69.57-.46.86-1.08.86-1.86,0-1.64-1.12-2.46-3.35-2.46-1.1,0-1.76.12-1.97.37-.12.14-.18.46-.18.97v2.54c0,.57.04.89.12.97Z"/>
		<path d="M751.15,201.48h-.5c-.92,0-1.38-.48-1.38-1.44,0-.41.12-.75.36-1.01.24-.27.53-.4.88-.4.09,0,.26.03.5.08l.51.06c.58,0,.87-.51.87-1.54v-8.57c0-1.01-.29-1.52-.87-1.52l-.51.07-.5.05c-.38,0-.69-.13-.91-.38s-.33-.61-.33-1.05c0-.96.46-1.43,1.38-1.43h.5l.9.17c.55.07,1.24.11,2.07.11h.28c.72,0,1.32-.04,1.81-.11l.9-.17h.5c.92,0,1.38.49,1.38,1.46,0,.42-.12.76-.34,1.02s-.53.39-.9.39l-.5-.05-.5-.07c-.57,0-.85.51-.85,1.52v8.57c0,1.03.28,1.54.85,1.54l.5-.06c.08-.01.16-.03.24-.05.08-.02.17-.03.26-.03.38,0,.69.13.91.4s.33.61.33,1.04c0,.94-.46,1.41-1.38,1.41h-.5l-.9-.13c-.66-.08-1.35-.13-2.07-.13-.38,0-.75,0-1.1.03-.35.02-.68.05-.99.1l-.9.13Z"/>
		<path d="M779.64,188.99l-.09-.67c-.05-.38-.1-.64-.15-.77s-.14-.24-.26-.33c-.25-.12-.6-.18-1.06-.18-.55,0-.95.12-1.18.36-.24.24-.36.63-.36,1.18v8.66c0,1.03.29,1.54.87,1.54l.53-.06c.21-.05.38-.08.48-.08.37,0,.66.13.88.4s.33.61.33,1.04c0,.94-.45,1.41-1.35,1.41h-.51l-.92-.13c-.66-.08-1.34-.13-2.04-.13s-1.41.04-2.07.13l-.9.13h-.53c-.9,0-1.36-.48-1.36-1.44,0-.41.12-.75.36-1.01s.52-.4.86-.4c.11,0,.27.03.48.08l.53.06c.58,0,.87-.51.87-1.54v-8.66c0-.55-.12-.94-.36-1.18-.24-.24-.63-.36-1.18-.36-.49,0-.83.06-1.01.18-.12.08-.21.18-.28.3-.06.12-.12.39-.18.8l-.09.67-.05.67c-.08.52-.15.91-.23,1.17-.08.26-.16.45-.25.57-.26.34-.61.5-1.06.5-.4,0-.74-.15-1.01-.44-.28-.29-.41-.64-.41-1.06l.06-1.13c.07-.49.1-.9.1-1.24,0-.21-.01-.52-.04-.91-.02-.39-.07-.87-.13-1.44v-.3c0-.61.37-.92,1.1-.92l3.31.18h6.87l3.33-.18c.72,0,1.08.31,1.08.92v.3c-.05.43-.08.86-.12,1.3-.03.44-.05.78-.05,1.04v.71c.05.25.08.42.09.53l.07,1.13c0,.41-.14.77-.41,1.06-.28.29-.61.44-1.01.44-.11,0-.19-.01-.25-.03-.06-.02-.13-.05-.21-.08-.31-.12-.51-.26-.61-.4s-.2-.38-.29-.71-.14-.67-.14-1.02l-.09-.67Z"/>
		<path d="M790.9,184.4h.53c.9,0,1.36.49,1.36,1.46,0,.4-.1.74-.31,1.01-.21.27-.46.41-.77.41l-.32-.05-.48-.07c-.54,0-.8.51-.8,1.52v6.82c0,.75.05,1.29.16,1.62s.34.65.69.95c.58.44,1.36.67,2.34.67s1.73-.22,2.34-.67c.35-.28.59-.59.71-.94.12-.35.18-.9.18-1.63v-6.82c0-1.01-.28-1.52-.85-1.52l-.46.07-.32.05c-.31,0-.56-.13-.77-.41-.21-.27-.31-.61-.31-1.03,0-.96.45-1.43,1.35-1.43h.51l.87.17c.23.04.51.06.85.08s.67.03,1.01.03c.73,0,1.37-.04,1.91-.11l.9-.17h.53c.9,0,1.35.49,1.35,1.46,0,.42-.12.76-.34,1.02s-.52.39-.87.39l-.48-.05-.53-.07c-.58,0-.87.51-.87,1.52v6.98c0,1.33-.15,2.35-.46,3.07-.31.71-.86,1.32-1.65,1.83-1.12.72-2.65,1.08-4.59,1.08-1,0-1.85-.08-2.57-.25s-1.39-.44-2-.83c-.77-.47-1.31-1.08-1.63-1.83-.32-.74-.48-1.76-.48-3.07v-6.98c0-1.01-.29-1.52-.87-1.52l-.51.07-.5.05c-.38,0-.69-.13-.91-.38s-.33-.61-.33-1.05c0-.96.46-1.43,1.38-1.43h.5l.9.17c.26.04.56.06.91.08.34.02.69.03,1.02.03h.25c.64,0,1.19-.04,1.63-.11l.83-.17Z"/>
		<path d="M810.3,188.92l.14,8.31c0,.55.07.94.21,1.16s.37.33.69.33h.25l.48-.07.25-.05c.37,0,.66.13.88.4s.33.62.33,1.04c0,.95-.45,1.42-1.35,1.42h-.51l-.92-.13c-.26-.05-.54-.08-.84-.1-.3-.02-.64-.03-1.02-.03-.31,0-.62,0-.93.03-.31.02-.62.05-.93.1l-.9.13h-.5c-.92,0-1.38-.48-1.38-1.45,0-.41.12-.75.36-1.02.24-.27.52-.4.86-.4l.3.05.48.07.23.02c.6,0,.9-.5.9-1.52v-8.5c0-1.03-.29-1.54-.87-1.54h-.51l-.5.07c-.37,0-.67-.13-.9-.39-.23-.26-.34-.61-.34-1.06,0-.95.46-1.42,1.38-1.42h.31c.08,0,.26.04.52.11.26.07.56.12.91.14.34.02.62.03.84.03l1.86-.12,1.22-.12.34-.03c.18,0,.36.05.53.16.17.11.29.23.38.37s.21.42.38.86l.83,1.9.87,2.01,1.7,4.09,1.63,3.77.37.69.05-.28v-.92l-.14-8.38c0-.54-.07-.92-.21-1.15-.14-.23-.37-.34-.69-.34l-.25.02h-.83c-.32,0-.6-.13-.83-.41-.23-.27-.34-.6-.34-.99,0-.93.46-1.4,1.38-1.4h.53l.96.17c.55.07,1.12.11,1.72.11h.87c.41-.05.72-.09.92-.11l.96-.17h.53c.92,0,1.38.47,1.38,1.42,0,.38-.11.7-.32.97-.21.27-.48.41-.8.41h-.39l-.73-.02c-.6,0-.9.5-.9,1.5v10.37c0,.69-.05,1.21-.16,1.55s-.33.58-.65.7c-.33.12-1.12.18-2.38.18-.46,0-.8-.03-1.01-.09-.21-.06-.38-.16-.49-.29-.12-.13-.2-.24-.25-.32-.05-.08-.14-.24-.26-.47-.69-1.47-1.23-2.65-1.63-3.52-.58-1.27-1.28-2.84-2.09-4.69l-1.65-3.79-.28-.58-.02.3v.9Z"/>
		<path d="M831.52,188.92l.14,8.31c0,.55.07.94.21,1.16s.37.33.69.33h.25l.48-.07.25-.05c.37,0,.66.13.88.4s.33.62.33,1.04c0,.95-.45,1.42-1.35,1.42h-.51l-.92-.13c-.26-.05-.54-.08-.84-.1-.3-.02-.64-.03-1.02-.03-.31,0-.62,0-.93.03-.31.02-.62.05-.93.1l-.9.13h-.5c-.92,0-1.38-.48-1.38-1.45,0-.41.12-.75.36-1.02.24-.27.52-.4.86-.4l.3.05.48.07.23.02c.6,0,.9-.5.9-1.52v-8.5c0-1.03-.29-1.54-.87-1.54h-.51l-.5.07c-.37,0-.67-.13-.9-.39-.23-.26-.34-.61-.34-1.06,0-.95.46-1.42,1.38-1.42h.31c.08,0,.26.04.52.11.26.07.56.12.91.14.34.02.62.03.84.03l1.86-.12,1.22-.12.34-.03c.18,0,.36.05.53.16.17.11.29.23.38.37s.21.42.38.86l.83,1.9.87,2.01,1.7,4.09,1.63,3.77.37.69.05-.28v-.92l-.14-8.38c0-.54-.07-.92-.21-1.15-.14-.23-.37-.34-.69-.34l-.25.02h-.83c-.32,0-.6-.13-.83-.41-.23-.27-.34-.6-.34-.99,0-.93.46-1.4,1.38-1.4h.53l.96.17c.55.07,1.12.11,1.72.11h.87c.41-.05.72-.09.92-.11l.96-.17h.53c.92,0,1.38.47,1.38,1.42,0,.38-.11.7-.32.97-.21.27-.48.41-.8.41h-.39l-.73-.02c-.6,0-.9.5-.9,1.5v10.37c0,.69-.05,1.21-.16,1.55s-.33.58-.65.7c-.33.12-1.12.18-2.38.18-.46,0-.8-.03-1.01-.09-.21-.06-.38-.16-.49-.29-.12-.13-.2-.24-.25-.32-.05-.08-.14-.24-.26-.47-.69-1.47-1.23-2.65-1.63-3.52-.58-1.27-1.28-2.84-2.09-4.69l-1.65-3.79-.28-.58-.02.3v.9Z"/>
		<path d="M862.29,188.28l.11,1.79v.11c0,.51-.14.92-.42,1.25s-.65.49-1.09.49c-.41,0-.76-.17-1.04-.5s-.42-.75-.42-1.26l.12-1.21.02-.67c0-.29-.03-.51-.09-.65-.06-.14-.18-.25-.37-.35-.28-.17-.6-.25-.99-.25h-2.11c-.81,0-1.34,0-1.57.02-.24.02-.44.06-.61.14-.17.08-.29.19-.38.33-.08.15-.13.29-.13.42v2.66c0,.29.05.49.14.6.09.11.28.16.55.16h.62c.15,0,.31-.03.48-.09.17-.06.28-.12.34-.18l.14-.41.07-.55v-.53c0-.81.41-1.22,1.24-1.22.74,0,1.1.46,1.1,1.38v.14l-.12,2.53.12,2.67v.23c0,1.05-.39,1.58-1.18,1.58s-1.16-.55-1.16-1.64v-.39c0-.29-.07-.54-.2-.75s-.28-.31-.45-.31l-.25.07-.71-.07c-.49-.02-.74.3-.74.96v2.56c0,.49.05.82.16.98.12.12.24.2.36.23.11.03.22.06.31.08.09.02.2.04.32.06h2.23c.9,0,1.57-.05,2.01-.14.44-.09.73-.25.88-.48.12-.24.18-.62.18-1.14l-.02-.82-.02-.41c0-.64.14-1.14.42-1.5s.68-.54,1.18-.54c.44,0,.79.15,1.03.44.25.29.37.71.37,1.27l-.02.14-.16,2.21c0,.31,0,.61.01.9s.03.66.08,1.11l.02.55c0,.81-.47,1.22-1.4,1.22h-.64c-.23-.06-.41-.1-.53-.12-.21,0-1.22-.03-3.01-.09s-3.09-.09-3.9-.09c-1.64,0-2.97.06-4,.17l-1.01.12c-.92,0-1.38-.45-1.38-1.36,0-.41.12-.76.34-1.03s.53-.41.9-.41h.9c.6,0,.9-.5.9-1.49v-8.53c0-.53-.07-.91-.21-1.14-.14-.23-.37-.34-.69-.34l-.23.02h-.76c-.37,0-.67-.13-.9-.38-.23-.26-.34-.59-.34-1.02,0-.93.46-1.4,1.38-1.4h.5l.9.17c.31.04.79.06,1.46.08s1.23.03,1.69.03h2.46l4.71-.16,1.15-.02h.23c.87,0,1.31.4,1.31,1.19v.18l-.18,2.41Z"/>
		<path d="M880.39,197.62l.07,2.34c0,.54-.11.91-.34,1.12-.23.21-.64.32-1.24.32-.2,0-.6-.01-1.19-.03-.6-.02-1-.03-1.19-.03-1,0-1.8,0-2.41-.02-2.42-.06-3.7-.09-3.83-.09-1.09,0-1.97.04-2.66.13l-.9.13h-.5c-.92,0-1.38-.48-1.38-1.44,0-.41.12-.75.36-1.01.24-.27.53-.4.88-.4.09,0,.26.03.5.09l.51.07c.58,0,.87-.51.87-1.54v-8.58c0-1.01-.29-1.52-.87-1.52l-.51.07-.5.05c-.38,0-.69-.13-.91-.38s-.33-.61-.33-1.05c0-.96.46-1.43,1.38-1.43h.5l.9.17c.55.07,1.28.11,2.18.11h.55c.64,0,1.18-.04,1.61-.11l.9-.17h.53c.9,0,1.35.48,1.35,1.43,0,.44-.11.79-.34,1.05-.23.26-.55.39-.96.39-.09,0-.2,0-.32-.02-.12-.02-.22-.03-.3-.04l-.5-.05c-.57,0-.85.51-.85,1.52v8.31c0,.49,0,.81.02.95.01.15.08.3.18.47.11.17.31.28.6.32.29.05.93.07,1.93.07.73,0,1.28-.01,1.64-.05.36-.03.66-.09.91-.18.49-.15.73-.53.73-1.12l-.07-.8-.07-1.1c0-1.25.55-1.88,1.65-1.88s1.63.59,1.63,1.77v.18l-.18,2.02Z"/>
		<path d="M891.39,185.91v-.25c0-.77.44-1.15,1.31-1.15.34,0,.6.1.8.3s.3.47.3.83v.09l-.12,1.68c-.02.09-.02.19-.02.3v.64c.07.35.11.63.14.83v.62c0,.96-.46,1.45-1.37,1.45s-1.41-.52-1.41-1.56c0-.37-.03-.65-.08-.86-.05-.21-.16-.42-.31-.63-.66-.86-1.62-1.29-2.87-1.29-.77,0-1.41.2-1.92.6-.51.4-.76.89-.76,1.47,0,.29.1.57.3.85.2.28.44.47.73.6.29.12.57.22.83.29.26.07.65.15,1.17.24.08.02.48.1,1.22.25.38.08.64.14.78.18.37.06.73.17,1.09.31.36.15.72.33,1.09.56,1.42.81,2.14,2.1,2.14,3.86,0,1.62-.57,2.96-1.7,4-1.13,1.04-2.6,1.56-4.39,1.56-.98,0-1.86-.15-2.64-.46-.43-.15-1.04-.54-1.84-1.17,0,.54-.11.92-.32,1.15-.21.23-.56.34-1.03.34-.84,0-1.26-.54-1.26-1.61,0-.37.02-.65.05-.85.09-1.06.13-1.69.12-1.91l-.16-1.63v-.11c0-.84.49-1.26,1.47-1.26.29,0,.56.08.8.23.05.03.11.07.2.13s.16.13.24.22c.17.18.28.42.32.71l.09.94c.08.54.21.95.39,1.23.18.28.5.55.94.79.67.34,1.43.5,2.27.5.92,0,1.63-.22,2.15-.65.51-.44.77-1.04.77-1.8,0-1.04-.62-1.7-1.86-1.97l-1.29-.28c-.98-.21-1.78-.42-2.4-.63-.62-.21-1.18-.44-1.67-.7-.64-.38-1.15-.89-1.52-1.53-.37-.63-.55-1.35-.55-2.15,0-1.47.52-2.66,1.56-3.56,1.04-.9,2.4-1.35,4.09-1.35.78,0,1.48.11,2.11.32.46.15.8.3,1.03.45.23.15.56.43.99.86Z"/>
	</g>
	<g>
		<path d="M341.06,200.99c-1.35,0-2.44-.18-3.25-.53-.76-.34-1.48-.94-2.11-1.79-1.09-1.46-1.65-3.38-1.65-5.7,0-2.53.62-4.5,1.85-5.86,1.22-1.35,2.9-2,5.15-2s3.92.66,5.14,2c1.23,1.36,1.86,3.32,1.86,5.83,0,2.29-.56,4.22-1.66,5.74-.59.82-1.27,1.4-2.08,1.75-.83.37-1.93.55-3.27.55ZM341.08,186.04c-1.68,0-3.05.67-3.96,1.93-.85,1.18-1.29,2.84-1.29,4.96,0,2.24.41,3.93,1.26,5.17.91,1.32,2.28,2.02,3.99,2.02s3.08-.7,3.98-2.01c.84-1.23,1.25-2.92,1.25-5.16,0-2.12-.43-3.8-1.27-4.97-.91-1.26-2.27-1.93-3.95-1.93Z"/>
		<path d="M363.11,200.86c-.54,0-.73-.05-.76-.06-.1-.07-.15-.14-.19-.19-.05-.08-.13-.22-.24-.42-.69-1.47-1.25-2.68-1.66-3.58-.6-1.31-1.32-2.92-2.15-4.84l-1.71-3.92-1.19-2.48,1.31-.13.08.06s.09.15.31.72l1.77,4.07,1.75,4.21,1.69,3.91,1.39,2.64c-.13,0-.26,0-.41,0ZM356.65,200.86l-.88-.12c-.26-.05-.59-.09-.95-.11-.33-.02-.7-.03-1.11-.03-.33,0-.67,0-1.01.03-.36.02-.72.06-1.07.12l-.83.12h-.45c-.34,0-.4,0-.4-.47,0-.23.06-.32.11-.38.04-.04.06-.06.08-.07l.71.1.33.03h.05c.46,0,1.95-.19,1.95-2.59v-8.78c0-2.42-1.47-2.61-1.92-2.61h-.59l-.51.07c-.06,0-.08-.03-.11-.06-.08-.1-.1-.28-.1-.42,0-.45.05-.45.4-.45h.32s.12.03.26.08c.33.09.72.15,1.15.18.38.02.69.03.93.03l1.33-.09-.19,2.45v1s.14,8.61.14,8.61c0,.77.12,1.32.37,1.72.33.53.89.83,1.58.83h.33l.57-.08.18-.03s.04.02.06.04c.07.09.11.23.11.43,0,.31-.07.4-.07.4,0,0-.07.05-.31.05h-.45ZM364.51,198.33v-1.03l-.14-8.68c0-.75-.11-1.29-.36-1.7-.33-.55-.89-.85-1.59-.85l-.35.03h-.76c-.13-.13-.19-.22-.19-.43,0-.29.06-.37.06-.37,0,0,.08-.06.34-.06h.46l.91.16c.65.09,1.29.13,1.95.13h1.04c.41-.06.71-.1.91-.12l.99-.17h.46c.35,0,.4,0,.4.45,0,.2-.06.31-.11.37l-.43.03s-.73-.02-.73-.02c-.49,0-1.98.19-1.98,2.56v10.72c0,.79-.08,1.16-.12,1.3-.07.06-.31.14-1.17.18l.41-2.51Z"/>
		<path d="M388.15,200.81l-.88-.12c-.73-.09-1.49-.14-2.25-.14s-1.54.05-2.27.14l-.87.12h-.47c-.21,0-.3-.04-.31-.05-.01-.02-.07-.13-.07-.41,0-.22.06-.31.11-.37.07-.07.09-.07.13-.07.05,0,.14.02.25.05l.06.02.67.07h.06c.45,0,1.92-.19,1.92-2.61v-8.95c0-.85-.22-1.5-.67-1.94s-1.1-.67-1.94-.67c-.73,0-1.24.11-1.61.36-.27.17-.49.41-.63.7-.08.17-.18.43-.29,1.14l-.1.7-.05.76c-.08.53-.15.84-.2.99-.06.21-.1.28-.1.28-.04.05-.09.1-.27.1-.13,0-.21-.03-.3-.13-.11-.11-.15-.22-.15-.39l.06-1.11c.07-.48.1-.94.1-1.34,0-.24-.01-.57-.04-1-.02-.4-.07-.9-.13-1.48v-.18s.07,0,.12,0l3.36.19h7.15s3.5-.19,3.5-.19c.01,0,.02,0,.04,0v.19c-.04.44-.08.88-.11,1.32-.03.48-.05.87-.05,1.15v.83s.09.5.11.6l.06,1.08c0,.1-.04.22-.15.33-.09.09-.16.13-.28.13l-.12-.05c-.11-.04-.17-.08-.2-.1,0-.02-.05-.14-.12-.38-.07-.25-.11-.51-.11-.78v-.07l-.2-1.45c-.06-.48-.13-.81-.22-1.04-.13-.31-.33-.57-.6-.77l-.07-.06-.08-.04c-.4-.2-.91-.3-1.55-.3-.85,0-1.5.22-1.94.67s-.67,1.1-.67,1.94v8.95c0,2.42,1.47,2.61,1.92,2.61h.11s.61-.07.61-.07l.06-.02c.11-.03.2-.05.27-.05.08,0,.09.02.12.05.07.09.11.23.11.42,0,.3-.07.39-.07.39h0s-.07.05-.31.05h-.45Z"/>
		<path d="M411.23,200.86l-.86-.12c-.55-.09-1.28-.14-2.14-.14-.35,0-.69,0-1.03.03-.36.02-.71.06-1.03.12l-.73.11h-.44c-.33,0-.4,0-.4-.51,0-.15.02-.27.07-.36l.74.14h.09c.54,0,1.8-.26,1.8-2.63v-3.01c0-.38-.04-.82-.36-1.15l-.3-.31h-7.21l-.3.3c-.33.33-.37.77-.37,1.15v3.01c0,.69.1,1.24.31,1.66.31.62.85.98,1.5.98h.09l.73-.14c.03.08.05.21.05.38,0,.49-.06.49-.4.49h-.44l-.75-.12c-.29-.06-.69-.1-1.19-.12-.47-.02-.75-.03-.85-.03-.37,0-.72,0-1.07.03-.37.02-.73.06-1.09.12l-.83.12h-.45c-.35,0-.4,0-.4-.46,0-.22.06-.31.11-.37.06-.06.09-.07.15-.07.03,0,.33.08.33.08l.64.09h.07c.45,0,1.92-.19,1.92-2.62v-8.91c0-2.41-1.47-2.6-1.92-2.6h-.14l-.52.14h-.39c-.13,0-.16-.03-.17-.04-.06-.07-.09-.21-.09-.41,0-.45.05-.45.4-.45h.43l.83.15c.34.05.68.08,1.07.1.37.02.74.03,1.11.03h.26c.72,0,1.3-.04,1.79-.13l.76-.16h.42c.32,0,.4,0,.4.54,0,.21-.05.31-.08.37h-.11l-.5-.14h-.14c-.56,0-1.85.26-1.85,2.61v2.27c0,.44.13.8.39,1.06l.3.3h7l.24-.15c.23-.14.61-.48.61-1.21v-2.27c0-2.36-1.29-2.61-1.85-2.61h-.14l-.5.14h-.19s-.03-.11-.03-.39c0-.51.08-.51.4-.51h.42l.73.15c.31.05.63.08,1,.1.35.02.71.03,1.08.03h.26c.71,0,1.35-.04,1.89-.13l.86-.16h.43c.34,0,.4,0,.4.48,0,.22-.06.32-.11.38-.03.03-.04.05-.13.05h-.39l-.55-.14h-.13c-.45,0-1.9.19-1.9,2.6v8.91c0,2.37,1.33,2.62,1.9,2.62h.07l.67-.09h.05c.14-.05.24-.07.31-.08.06,0,.08.03.1.05.07.08.11.23.11.42,0,.26-.05.37-.07.38-.01.01-.11.06-.34.06h-.45Z"/>
		<path d="M427.8,200.86c-.22-.05-.39-.09-.51-.11h-.08s-.08-.01-.08-.01c-.22,0-1.24-.03-3.07-.09-1.86-.06-3.22-.1-4.07-.1-1.73,0-3.15.06-4.25.19l-.98.12c-.19,0-.28-.04-.3-.06-.01-.01-.05-.11-.05-.32,0-.24.07-.35.12-.42.03-.04.05-.06.14-.06h.93c.46,0,1.95-.18,1.95-2.56v-8.82c0-.75-.11-1.3-.36-1.71-.33-.55-.9-.85-1.59-.85h-.1s-.19.02-.19.02h-.73c-.11,0-.14-.03-.16-.06-.06-.07-.1-.2-.1-.37,0-.25.05-.36.06-.37.01-.01.11-.06.34-.06h.43l.83.15c.41.05.93.08,1.66.1.7.02,1.29.03,1.77.03h2.54l4.9-.17,1.17-.02h.22c.18,0,.29.03.32.04,0,.01,0,.07,0,.17v.19l-.19,2.49.12,1.92v.05c0,.36-.11.53-.19.63-.1.11-.19.15-.35.15-.11,0-.19-.02-.3-.16-.08-.1-.19-.27-.19-.64l.11-1.15.03-.76c0-.49-.06-.83-.18-1.11-.11-.25-.35-.61-.86-.86-.37-.23-.89-.37-1.48-.37h-2.18c-.87,0-1.44,0-1.69.03-.37.02-.7.1-.99.23-.36.16-.66.43-.85.76-.18.31-.27.63-.27.95v2.75c0,.56.13.98.39,1.28.3.35.75.52,1.35.52h.64c.28,0,.56-.05.85-.16.32-.11.55-.25.72-.42l.18-.17.25-.76.09-.73v-.61c0-.13.02-.2.03-.22h0s.1-.02.23-.02c.04,0,.07,0,.09,0,0,.02.03.14.03.4v.14l-.12,2.57.12,2.85v.19c0,.41-.08.57-.1.6,0,0,0,0,0,0-.01,0-.04,0-.1,0h0c-.07,0-.17-.16-.17-.68v-.41c0-.5-.12-.94-.36-1.32-.44-.7-1.02-.8-1.33-.8h-.14l-.21.06-.6-.06h-.08c-.81,0-1.75.53-1.75,2.01v2.65c0,.73.1,1.21.33,1.57l.06.1.08.08c.25.25.53.42.82.5l.34.09c.13.03.28.06.45.08h.06s2.37,0,2.37,0c1.02,0,1.76-.05,2.29-.16.72-.15,1.24-.46,1.55-.93l.04-.05.03-.06c.2-.41.3-.93.3-1.64l-.02-.88-.03-.45c0-.36.08-.68.22-.86.06-.08.15-.17.42-.17.21,0,.26.06.29.09.04.05.13.19.14.57v.05s-.19,2.38-.19,2.38c0,.4,0,.72,0,1.03,0,.32.04.73.09,1.22l.02.51c0,.07-.02.13-.03.15h0s-.12.05-.4.05h-.54Z"/>
	</g>
	<g>
		<path d="M651.69,200.76c-.29,0-.41-.09-.44-.11-.05-.04-.07-.16-.07-.33,0-.06,0-.16.03-.24,0,0,.88.08.88.08,1.05,0,1.7-.63,1.7-1.57,0-.22-.03-.43-.1-.63l-.55-1.65-.08-.22c-.44-.94-1.07-1.07-1.41-1.07h-4.78c-.34.04-1.18.25-1.49,1.42l-.24.73c-.3.8-.36,1.14-.36,1.39,0,.24.07.47.23.79l.07.15.12.12c.38.38.77.46,1.03.46h1.2s.01.11.01.19c0,.5-.09.5-.45.5l-.77-.05c-.83-.14-1.65-.21-2.37-.21s-1.48.09-2.31.26h-.77c-.45,0-.45-.06-.45-.43,0-.14.03-.25.11-.36l.78.1h.06c.88,0,1.57-.65,2.05-1.92l4.21-11.8c.09-.26.18-.47.26-.63.06-.12.12-.25.19-.36.07-.07.21-.17.54-.17h.99l-.8,1.07c-.1.13-.16.23-.19.3-.09.14-.19.39-.25.64l-.07.37-1.52,4.98-.16.59v.14c0,.64.47,1.28,1.38,1.28h2.97c.96,0,1.4-.66,1.4-1.28v-.09l-.09-.47-1.35-5.19-.11-.35c-.05-.19-.1-.36-.14-.46-.04-.11-.09-.2-.13-.29l-.6-1.24h1.06c.11.04.17.07.24.11.04.05.12.18.29.68l4.01,12.06c.42,1.26,1.09,1.9,1.99,1.9h1.04s.02.14.02.34c0,.39-.01.46-.5.46-.26,0-.54-.02-.81-.07-.35-.06-.74-.1-1.15-.14-.42-.04-.78-.06-1.08-.06-.58,0-1.36.06-2.39.2l-.85.06Z"/>
		<path d="M674.02,200.76c-.54,0-.73-.05-.76-.06-.1-.07-.15-.14-.19-.19-.05-.08-.13-.22-.24-.42-.69-1.47-1.25-2.68-1.66-3.58-.6-1.31-1.32-2.92-2.15-4.83l-1.71-3.92-1.18-2.47,1.31-.13.08.06s.09.15.31.72l1.77,4.07,1.75,4.21,1.69,3.91,1.39,2.63c-.13,0-.26,0-.41,0ZM667.57,200.76l-.88-.12c-.26-.05-.59-.09-.95-.11-.33-.02-.7-.03-1.11-.03-.33,0-.67,0-1.01.03-.36.02-.72.06-1.07.12l-.83.12h-.45c-.34,0-.4,0-.4-.47,0-.23.06-.32.11-.38.04-.04.06-.06.08-.07l.71.1.33.03h.05c.46,0,1.95-.19,1.95-2.59v-8.78c0-2.42-1.47-2.61-1.92-2.61h-.59l-.51.07c-.06,0-.08-.03-.11-.06-.08-.1-.1-.28-.1-.42,0-.45.05-.45.4-.45h.32s.12.03.26.08c.33.09.72.15,1.15.18.38.02.69.03.93.03l1.33-.09-.19,2.45v1s.14,8.61.14,8.61c0,.77.12,1.32.37,1.72.33.53.89.83,1.58.83h.33l.57-.08.18-.03s.04.02.06.04c.07.09.11.23.11.43,0,.31-.07.4-.07.4,0,0-.07.05-.31.05h-.45ZM675.42,198.23v-1.03l-.14-8.67c0-.75-.11-1.29-.36-1.7-.33-.55-.89-.85-1.59-.85l-.35.03h-.76c-.13-.13-.19-.22-.19-.43,0-.29.06-.37.06-.37,0,0,.08-.06.34-.06h.46l.91.16c.65.09,1.29.13,1.95.13h1.04c.41-.06.71-.1.91-.12l.99-.17h.46c.35,0,.4,0,.4.45,0,.2-.06.3-.11.37l-.43.03s-.73-.02-.73-.02c-.49,0-1.98.19-1.98,2.56v10.72c0,.79-.08,1.16-.12,1.3-.07.06-.31.14-1.17.18l.41-2.51Z"/>
		<path d="M682.09,200.76c-.28,0-.34-.03-.34-.5,0-.24.06-.34.12-.4.06-.07.09-.07.14-.07,0,0,.09.03.21.07l.07.02.68.12h.09c.45,0,1.92-.19,1.92-2.61v-8.85c0-2.4-1.47-2.59-1.92-2.59h-.07l-.59.08-.48.04s-.06-.03-.07-.05c-.06-.07-.09-.22-.09-.42,0-.46.05-.46.4-.46h.43l.83.15c.67.09,1.43.13,2.37.13l2.76-.07,2.13-.1c1.11,0,2.1.19,2.9.55.77.36,1.48.95,2.1,1.76,1.1,1.43,1.64,3.18,1.64,5.36,0,1.67-.37,3.2-1.11,4.54-.51.93-1.16,1.67-1.94,2.21-.59.41-1.11.68-1.58.8-.34.09-1,.2-2.26.2-.4,0-.71,0-.93-.02-1.77-.12-1.98-.12-2.06-.12,0,0-1.77-.05-1.79-.05-.39,0-.75,0-1.1.02-.38.01-.74.04-1.08.08l-.91.09-.48.07ZM689.45,185.95c-.88,0-1.49.1-1.93.32-.63.31-.99.91-.99,1.65v9.4c0,.76.05,1.19.16,1.49.27.69,1,.95,1.24,1.04.47.17,1.04.25,1.76.25,1.87,0,3.34-.63,4.38-1.88.99-1.19,1.5-2.89,1.5-5.03,0-5.97-3.33-7.22-6.12-7.22Z"/>
	</g>
	<path d="M897.04,3v168.51H3V3h894.04M900.04,0H0v174.51h900.04V0h0Z"/>
</svg>